<svg xmlns="http://www.w3.org/2000/svg" xmlns:xlink="http://www.w3.org/1999/xlink" width="500" zoomAndPan="magnify" viewBox="0 0 375 374.999991" height="500" preserveAspectRatio="xMidYMid meet" version="1.0"><defs><g/><clipPath id="6fa5bc26d9"><path d="M 12.128906 140.621094 L 89.378906 140.621094 L 89.378906 217.871094 L 12.128906 217.871094 Z M 12.128906 140.621094 " clip-rule="nonzero"/></clipPath><clipPath id="ec4c4c98fb"><path d="M 112.5 186.65625 L 262.5 186.65625 L 262.5 188 L 112.5 188 Z M 112.5 186.65625 " clip-rule="nonzero"/></clipPath></defs><g clip-path="url(#6fa5bc26d9)"><path fill="#00b779" d="M 50.691406 140.621094 C 57.792969 192.042969 63.546875 186.285156 12.125 179.1875 C 63.546875 172.085938 57.792969 166.332031 50.691406 217.753906 C 43.589844 166.332031 37.835938 172.085938 89.257812 179.1875 C 37.835938 186.285156 43.589844 192.042969 50.691406 140.621094 Z M 50.691406 189.613281 C 52.609375 175.710938 54.167969 177.269531 40.265625 179.1875 C 54.167969 181.105469 52.609375 182.664062 50.691406 168.761719 C 48.773438 182.664062 47.214844 181.105469 61.117188 179.1875 C 47.214844 177.269531 48.773438 175.710938 50.691406 189.613281 Z M 50.691406 189.613281 " fill-opacity="1" fill-rule="nonzero"/></g><g clip-path="url(#ec4c4c98fb)"><path fill="#faebd7" d="M 261.511719 187.914062 C 260.589844 187.835938 259.605469 188.042969 258.71875 187.808594 L 258.113281 187.757812 L 257.691406 187.75 L 256.542969 187.738281 C 255.269531 187.925781 253.996094 187.929688 252.734375 187.679688 C 251.203125 187.832031 249.636719 187.796875 248.054688 187.765625 C 245.414062 187.714844 242.769531 187.699219 240.125 187.679688 C 235.058594 187.589844 229.992188 187.632812 224.921875 187.511719 C 222.886719 187.464844 220.765625 187.507812 218.6875 187.542969 C 217.582031 187.667969 216.453125 187.582031 215.335938 187.570312 C 211.167969 187.519531 207 187.464844 202.835938 187.410156 C 199.675781 187.382812 196.5 187.375 193.332031 187.386719 C 191.238281 187.390625 189.144531 187.347656 187.058594 187.300781 C 184.378906 187.246094 181.769531 187.476562 179.125 187.5625 C 175.808594 187.675781 172.574219 187.5 169.3125 187.421875 C 168.539062 187.472656 167.769531 187.457031 167 187.425781 C 166.441406 187.460938 165.894531 187.476562 165.417969 187.339844 C 164.566406 187.097656 163.660156 187.527344 162.804688 187.335938 L 162.414062 187.347656 C 162.03125 187.449219 161.652344 187.425781 161.269531 187.355469 C 158.921875 187.359375 156.558594 187.503906 154.222656 187.351562 L 145.199219 187.464844 L 142.898438 187.484375 C 142.585938 187.507812 142.273438 187.53125 142.050781 187.421875 C 140.542969 187.558594 139.046875 187.539062 137.550781 187.457031 C 136.511719 187.753906 135.5 187.507812 134.476562 187.484375 L 132.59375 187.570312 C 131.691406 187.636719 130.800781 187.59375 129.902344 187.59375 L 129.515625 187.582031 L 127.21875 187.675781 C 126.324219 187.703125 125.429688 187.785156 124.539062 187.71875 C 123.636719 187.710938 122.636719 188.054688 121.835938 187.671875 L 120.707031 187.652344 L 120.765625 187.628906 C 120.742188 187.632812 120.722656 187.640625 120.707031 187.652344 C 120.300781 187.722656 119.921875 187.871094 119.453125 187.722656 L 118.359375 187.675781 L 116.464844 187.722656 C 115.933594 187.777344 115.453125 187.742188 115.003906 187.644531 L 114.226562 187.6875 C 113.953125 187.792969 113.683594 187.800781 113.410156 187.703125 C 113.230469 187.703125 113.054688 187.707031 112.878906 187.714844 L 112.863281 187.707031 C 112.816406 187.671875 112.765625 187.640625 112.699219 187.609375 C 112.640625 187.582031 112.574219 187.550781 112.507812 187.519531 C 112.679688 187.515625 112.851562 187.492188 113.019531 187.453125 C 113.804688 187.398438 114.589844 187.402344 115.375 187.417969 C 115.863281 187.332031 116.355469 187.390625 116.84375 187.386719 C 117.65625 187.320312 118.46875 187.230469 119.246094 187.382812 L 121.476562 187.363281 C 121.585938 187.328125 121.703125 187.320312 121.828125 187.347656 C 122.191406 187.289062 122.628906 187.246094 122.808594 187.386719 C 122.953125 187.5 122.535156 187.496094 122.3125 187.515625 C 123.066406 187.597656 123.820312 187.730469 124.367188 187.347656 C 124.441406 187.296875 124.957031 187.320312 125.269531 187.308594 C 125.953125 187.269531 126.636719 187.226562 127.253906 187.367188 C 127.671875 187.289062 128.117188 187.226562 128.488281 187.355469 C 128.824219 187.472656 129.140625 187.441406 129.503906 187.378906 L 130.308594 187.339844 C 130.367188 187.304688 130.449219 187.292969 130.554688 187.308594 C 131.738281 187.238281 132.921875 187.253906 134.105469 187.269531 C 135.121094 187.246094 136.136719 187.140625 137.15625 187.210938 C 138.824219 187.179688 140.507812 187.082031 142.144531 187.242188 C 142.246094 187.21875 142.355469 187.214844 142.46875 187.222656 C 142.882812 187.097656 143.296875 187.097656 143.71875 187.199219 L 144.410156 187.21875 C 144.382812 187.230469 144.351562 187.242188 144.320312 187.25 C 144.351562 187.242188 144.382812 187.230469 144.410156 187.21875 L 145.21875 187.210938 C 146.015625 187.089844 146.855469 187.128906 147.667969 187.121094 C 151.6875 187.070312 155.714844 186.894531 159.734375 186.988281 L 166.261719 186.910156 C 166.578125 186.90625 166.882812 186.921875 167.113281 187.007812 C 167.1875 186.992188 167.246094 186.996094 167.285156 187.023438 C 167.84375 186.890625 168.402344 186.886719 168.957031 187.003906 C 169.480469 186.925781 170.003906 186.820312 170.535156 186.988281 C 172.722656 186.945312 174.902344 186.847656 177.089844 186.871094 C 177.460938 186.875 177.847656 186.84375 178.167969 186.9375 C 180.625 186.761719 183.109375 186.835938 185.582031 186.828125 C 189.320312 186.816406 193.0625 186.859375 196.804688 186.863281 L 207.277344 186.902344 L 215.460938 186.960938 L 223.640625 187.046875 L 232.921875 187.179688 L 240.851562 187.277344 C 240.851562 187.277344 240.851562 187.277344 240.855469 187.277344 C 240.855469 187.277344 240.851562 187.277344 240.851562 187.277344 L 252.339844 187.433594 C 255.519531 187.394531 258.695312 187.582031 261.875 187.582031 C 262.039062 187.582031 262.207031 187.640625 262.371094 187.671875 C 262.5 187.9375 261.851562 187.859375 261.511719 187.914062 Z M 261.511719 187.914062 " fill-opacity="1" fill-rule="nonzero"/></g><g fill="#000000" fill-opacity="1"><g transform="translate(90.157683, 173.512633)"><g><path d="M 10.890625 -2.765625 C 11.304688 -2.765625 11.648438 -2.632812 11.921875 -2.375 C 12.203125 -2.113281 12.34375 -1.78125 12.34375 -1.375 C 12.34375 -0.976562 12.203125 -0.648438 11.921875 -0.390625 C 11.648438 -0.128906 11.304688 0 10.890625 0 L 3.21875 0 C 2.800781 0 2.453125 -0.132812 2.171875 -0.40625 C 1.898438 -0.6875 1.765625 -1.03125 1.765625 -1.4375 L 1.765625 -15.109375 C 1.765625 -15.515625 1.90625 -15.851562 2.1875 -16.125 C 2.476562 -16.40625 2.84375 -16.546875 3.28125 -16.546875 C 3.664062 -16.546875 4.003906 -16.40625 4.296875 -16.125 C 4.585938 -15.851562 4.734375 -15.515625 4.734375 -15.109375 L 4.734375 -2.359375 L 4.203125 -2.765625 Z M 10.890625 -2.765625 "/></g></g></g><g fill="#000000" fill-opacity="1"><g transform="translate(103.436523, 173.512633)"><g><path d="M 3.21875 -16.546875 L 11.140625 -16.546875 C 11.546875 -16.546875 11.882812 -16.414062 12.15625 -16.15625 C 12.4375 -15.894531 12.578125 -15.5625 12.578125 -15.15625 C 12.578125 -14.757812 12.4375 -14.4375 12.15625 -14.1875 C 11.882812 -13.945312 11.546875 -13.828125 11.140625 -13.828125 L 4.515625 -13.828125 L 4.734375 -14.234375 L 4.734375 -9.625 L 4.53125 -9.8125 L 10.078125 -9.8125 C 10.484375 -9.8125 10.820312 -9.679688 11.09375 -9.421875 C 11.375 -9.160156 11.515625 -8.828125 11.515625 -8.421875 C 11.515625 -8.023438 11.375 -7.703125 11.09375 -7.453125 C 10.820312 -7.210938 10.484375 -7.09375 10.078125 -7.09375 L 4.609375 -7.09375 L 4.734375 -7.28125 L 4.734375 -2.5 L 4.53125 -2.71875 L 11.140625 -2.71875 C 11.546875 -2.71875 11.882812 -2.578125 12.15625 -2.296875 C 12.4375 -2.023438 12.578125 -1.707031 12.578125 -1.34375 C 12.578125 -0.945312 12.4375 -0.625 12.15625 -0.375 C 11.882812 -0.125 11.546875 0 11.140625 0 L 3.21875 0 C 2.800781 0 2.453125 -0.132812 2.171875 -0.40625 C 1.898438 -0.6875 1.765625 -1.03125 1.765625 -1.4375 L 1.765625 -15.109375 C 1.765625 -15.515625 1.898438 -15.851562 2.171875 -16.125 C 2.453125 -16.40625 2.800781 -16.546875 3.21875 -16.546875 Z M 3.21875 -16.546875 "/></g></g></g><g fill="#000000" fill-opacity="1"><g transform="translate(116.951654, 173.512633)"><g><path d="M 13.359375 -15.75 C 13.765625 -15.539062 14.003906 -15.210938 14.078125 -14.765625 C 14.148438 -14.328125 14.035156 -13.925781 13.734375 -13.5625 C 13.523438 -13.28125 13.257812 -13.125 12.9375 -13.09375 C 12.613281 -13.0625 12.289062 -13.125 11.96875 -13.28125 C 11.582031 -13.457031 11.179688 -13.59375 10.765625 -13.6875 C 10.347656 -13.78125 9.910156 -13.828125 9.453125 -13.828125 C 8.597656 -13.828125 7.835938 -13.691406 7.171875 -13.421875 C 6.503906 -13.160156 5.929688 -12.78125 5.453125 -12.28125 C 4.984375 -11.78125 4.625 -11.191406 4.375 -10.515625 C 4.132812 -9.835938 4.015625 -9.09375 4.015625 -8.28125 C 4.015625 -7.3125 4.148438 -6.472656 4.421875 -5.765625 C 4.703125 -5.054688 5.085938 -4.460938 5.578125 -3.984375 C 6.066406 -3.515625 6.640625 -3.164062 7.296875 -2.9375 C 7.960938 -2.707031 8.679688 -2.59375 9.453125 -2.59375 C 9.878906 -2.59375 10.304688 -2.632812 10.734375 -2.71875 C 11.160156 -2.800781 11.570312 -2.941406 11.96875 -3.140625 C 12.289062 -3.296875 12.613281 -3.347656 12.9375 -3.296875 C 13.257812 -3.253906 13.535156 -3.09375 13.765625 -2.8125 C 14.078125 -2.414062 14.1875 -2.007812 14.09375 -1.59375 C 14.007812 -1.175781 13.769531 -0.875 13.375 -0.6875 C 12.96875 -0.476562 12.546875 -0.304688 12.109375 -0.171875 C 11.679688 -0.0351562 11.242188 0.0625 10.796875 0.125 C 10.359375 0.195312 9.910156 0.234375 9.453125 0.234375 C 8.316406 0.234375 7.238281 0.0546875 6.21875 -0.296875 C 5.207031 -0.660156 4.300781 -1.195312 3.5 -1.90625 C 2.707031 -2.625 2.082031 -3.515625 1.625 -4.578125 C 1.175781 -5.640625 0.953125 -6.875 0.953125 -8.28125 C 0.953125 -9.488281 1.160156 -10.601562 1.578125 -11.625 C 1.992188 -12.65625 2.582031 -13.539062 3.34375 -14.28125 C 4.101562 -15.03125 5.003906 -15.613281 6.046875 -16.03125 C 7.085938 -16.457031 8.222656 -16.671875 9.453125 -16.671875 C 10.148438 -16.671875 10.828125 -16.585938 11.484375 -16.421875 C 12.148438 -16.265625 12.773438 -16.039062 13.359375 -15.75 Z M 13.359375 -15.75 "/></g></g></g><g fill="#000000" fill-opacity="1"><g transform="translate(131.766301, 173.512633)"><g><path d="M 10.890625 -2.765625 C 11.304688 -2.765625 11.648438 -2.632812 11.921875 -2.375 C 12.203125 -2.113281 12.34375 -1.78125 12.34375 -1.375 C 12.34375 -0.976562 12.203125 -0.648438 11.921875 -0.390625 C 11.648438 -0.128906 11.304688 0 10.890625 0 L 3.21875 0 C 2.800781 0 2.453125 -0.132812 2.171875 -0.40625 C 1.898438 -0.6875 1.765625 -1.03125 1.765625 -1.4375 L 1.765625 -15.109375 C 1.765625 -15.515625 1.90625 -15.851562 2.1875 -16.125 C 2.476562 -16.40625 2.84375 -16.546875 3.28125 -16.546875 C 3.664062 -16.546875 4.003906 -16.40625 4.296875 -16.125 C 4.585938 -15.851562 4.734375 -15.515625 4.734375 -15.109375 L 4.734375 -2.359375 L 4.203125 -2.765625 Z M 10.890625 -2.765625 "/></g></g></g><g fill="#000000" fill-opacity="1"><g transform="translate(145.045141, 173.512633)"><g><path d="M 7.84375 -12.84375 L 2.75 -0.828125 C 2.632812 -0.523438 2.460938 -0.289062 2.234375 -0.125 C 2.003906 0.0390625 1.753906 0.125 1.484375 0.125 C 1.054688 0.125 0.738281 0.00390625 0.53125 -0.234375 C 0.332031 -0.472656 0.234375 -0.765625 0.234375 -1.109375 C 0.234375 -1.253906 0.257812 -1.40625 0.3125 -1.5625 L 6.1875 -15.703125 C 6.320312 -16.015625 6.515625 -16.253906 6.765625 -16.421875 C 7.023438 -16.597656 7.304688 -16.671875 7.609375 -16.640625 C 7.890625 -16.640625 8.148438 -16.554688 8.390625 -16.390625 C 8.640625 -16.222656 8.820312 -15.992188 8.9375 -15.703125 L 14.75 -1.84375 C 14.832031 -1.632812 14.875 -1.445312 14.875 -1.28125 C 14.875 -0.851562 14.734375 -0.507812 14.453125 -0.25 C 14.179688 0 13.878906 0.125 13.546875 0.125 C 13.265625 0.125 13.007812 0.0351562 12.78125 -0.140625 C 12.550781 -0.316406 12.375 -0.550781 12.25 -0.84375 L 7.15625 -12.6875 Z M 3.46875 -3.71875 L 4.78125 -6.4375 L 11.15625 -6.4375 L 11.609375 -3.71875 Z M 3.46875 -3.71875 "/></g></g></g><g fill="#000000" fill-opacity="1"><g transform="translate(160.143331, 173.512633)"><g><path d="M 4.734375 -1.4375 C 4.734375 -1.03125 4.582031 -0.6875 4.28125 -0.40625 C 3.976562 -0.132812 3.628906 0 3.234375 0 C 2.796875 0 2.441406 -0.132812 2.171875 -0.40625 C 1.898438 -0.6875 1.765625 -1.03125 1.765625 -1.4375 L 1.765625 -15.109375 C 1.765625 -15.515625 1.90625 -15.851562 2.1875 -16.125 C 2.476562 -16.40625 2.84375 -16.546875 3.28125 -16.546875 C 3.664062 -16.546875 4.003906 -16.40625 4.296875 -16.125 C 4.585938 -15.851562 4.734375 -15.515625 4.734375 -15.109375 Z M 4.734375 -1.4375 "/></g></g></g><g fill="#000000" fill-opacity="1"><g transform="translate(166.64098, 173.512633)"><g><path d="M 3.46875 0 C 3.03125 0 2.632812 -0.132812 2.28125 -0.40625 C 1.9375 -0.6875 1.765625 -1.03125 1.765625 -1.4375 L 1.765625 -15.109375 C 1.765625 -15.515625 1.898438 -15.851562 2.171875 -16.125 C 2.453125 -16.40625 2.800781 -16.546875 3.21875 -16.546875 L 10.03125 -16.546875 C 10.84375 -16.546875 11.609375 -16.328125 12.328125 -15.890625 C 13.046875 -15.460938 13.625 -14.863281 14.0625 -14.09375 C 14.507812 -13.332031 14.734375 -12.457031 14.734375 -11.46875 C 14.734375 -10.863281 14.609375 -10.273438 14.359375 -9.703125 C 14.117188 -9.140625 13.789062 -8.628906 13.375 -8.171875 C 12.957031 -7.722656 12.488281 -7.367188 11.96875 -7.109375 L 11.984375 -7.65625 C 12.421875 -7.425781 12.785156 -7.144531 13.078125 -6.8125 C 13.367188 -6.488281 13.597656 -6.140625 13.765625 -5.765625 C 13.929688 -5.398438 14.03125 -5.007812 14.0625 -4.59375 C 14.125 -4.195312 14.164062 -3.847656 14.1875 -3.546875 C 14.21875 -3.242188 14.265625 -2.988281 14.328125 -2.78125 C 14.398438 -2.582031 14.539062 -2.425781 14.75 -2.3125 C 15.09375 -2.113281 15.304688 -1.816406 15.390625 -1.421875 C 15.484375 -1.035156 15.394531 -0.695312 15.125 -0.40625 C 14.957031 -0.195312 14.738281 -0.0625 14.46875 0 C 14.195312 0.0507812 13.925781 0.0507812 13.65625 0 C 13.394531 -0.0625 13.175781 -0.140625 13 -0.234375 C 12.726562 -0.390625 12.457031 -0.617188 12.1875 -0.921875 C 11.925781 -1.234375 11.710938 -1.648438 11.546875 -2.171875 C 11.378906 -2.691406 11.296875 -3.363281 11.296875 -4.1875 C 11.296875 -4.457031 11.25 -4.703125 11.15625 -4.921875 C 11.0625 -5.148438 10.925781 -5.347656 10.75 -5.515625 C 10.582031 -5.679688 10.363281 -5.804688 10.09375 -5.890625 C 9.820312 -5.984375 9.507812 -6.03125 9.15625 -6.03125 L 4.375 -6.03125 L 4.734375 -6.578125 L 4.734375 -1.4375 C 4.734375 -1.03125 4.617188 -0.6875 4.390625 -0.40625 C 4.171875 -0.132812 3.863281 0 3.46875 0 Z M 4.390625 -8.46875 L 9.90625 -8.46875 C 10.1875 -8.46875 10.460938 -8.597656 10.734375 -8.859375 C 11.003906 -9.117188 11.222656 -9.472656 11.390625 -9.921875 C 11.566406 -10.367188 11.65625 -10.859375 11.65625 -11.390625 C 11.65625 -12.085938 11.46875 -12.664062 11.09375 -13.125 C 10.726562 -13.59375 10.332031 -13.828125 9.90625 -13.828125 L 4.4375 -13.828125 L 4.734375 -14.59375 L 4.734375 -7.890625 Z M 4.390625 -8.46875 "/></g></g></g><g fill="#000000" fill-opacity="1"><g transform="translate(182.873306, 173.512633)"><g/></g></g><g fill="#000000" fill-opacity="1"><g transform="translate(189.4891, 173.512633)"><g><path d="M 3.265625 0 C 2.816406 0 2.453125 -0.132812 2.171875 -0.40625 C 1.898438 -0.6875 1.765625 -1.03125 1.765625 -1.4375 L 1.765625 -15.109375 C 1.765625 -15.515625 1.898438 -15.851562 2.171875 -16.125 C 2.453125 -16.40625 2.800781 -16.546875 3.21875 -16.546875 L 10.890625 -16.546875 C 11.304688 -16.546875 11.648438 -16.414062 11.921875 -16.15625 C 12.203125 -15.894531 12.34375 -15.5625 12.34375 -15.15625 C 12.34375 -14.8125 12.203125 -14.503906 11.921875 -14.234375 C 11.648438 -13.960938 11.304688 -13.828125 10.890625 -13.828125 L 4.515625 -13.828125 L 4.734375 -14.109375 L 4.734375 -9.359375 L 4.5625 -9.671875 L 9.828125 -9.671875 C 10.242188 -9.671875 10.585938 -9.539062 10.859375 -9.28125 C 11.140625 -9.019531 11.28125 -8.6875 11.28125 -8.28125 C 11.28125 -7.925781 11.140625 -7.613281 10.859375 -7.34375 C 10.585938 -7.082031 10.242188 -6.953125 9.828125 -6.953125 L 4.515625 -6.953125 L 4.734375 -7.15625 L 4.734375 -1.4375 C 4.734375 -1.03125 4.585938 -0.6875 4.296875 -0.40625 C 4.003906 -0.132812 3.660156 0 3.265625 0 Z M 3.265625 0 "/></g></g></g><g fill="#000000" fill-opacity="1"><g transform="translate(202.76794, 173.512633)"><g><path d="M 17 -8.28125 C 17 -7.09375 16.800781 -5.984375 16.40625 -4.953125 C 16.007812 -3.929688 15.453125 -3.03125 14.734375 -2.25 C 14.023438 -1.476562 13.175781 -0.867188 12.1875 -0.421875 C 11.195312 0.015625 10.117188 0.234375 8.953125 0.234375 C 7.785156 0.234375 6.710938 0.015625 5.734375 -0.421875 C 4.765625 -0.867188 3.921875 -1.476562 3.203125 -2.25 C 2.484375 -3.03125 1.925781 -3.929688 1.53125 -4.953125 C 1.144531 -5.984375 0.953125 -7.09375 0.953125 -8.28125 C 0.953125 -9.457031 1.144531 -10.554688 1.53125 -11.578125 C 1.925781 -12.609375 2.484375 -13.515625 3.203125 -14.296875 C 3.921875 -15.078125 4.765625 -15.6875 5.734375 -16.125 C 6.710938 -16.5625 7.785156 -16.78125 8.953125 -16.78125 C 10.117188 -16.78125 11.195312 -16.5625 12.1875 -16.125 C 13.175781 -15.6875 14.023438 -15.078125 14.734375 -14.296875 C 15.453125 -13.515625 16.007812 -12.609375 16.40625 -11.578125 C 16.800781 -10.554688 17 -9.457031 17 -8.28125 Z M 13.921875 -8.28125 C 13.921875 -9.332031 13.707031 -10.285156 13.28125 -11.140625 C 12.851562 -12.003906 12.269531 -12.6875 11.53125 -13.1875 C 10.789062 -13.695312 9.929688 -13.953125 8.953125 -13.953125 C 7.984375 -13.953125 7.125 -13.695312 6.375 -13.1875 C 5.632812 -12.6875 5.054688 -12.007812 4.640625 -11.15625 C 4.222656 -10.300781 4.015625 -9.34375 4.015625 -8.28125 C 4.015625 -7.21875 4.222656 -6.253906 4.640625 -5.390625 C 5.054688 -4.535156 5.632812 -3.851562 6.375 -3.34375 C 7.125 -2.84375 7.984375 -2.59375 8.953125 -2.59375 C 9.929688 -2.59375 10.789062 -2.84375 11.53125 -3.34375 C 12.269531 -3.851562 12.851562 -4.535156 13.28125 -5.390625 C 13.707031 -6.253906 13.921875 -7.21875 13.921875 -8.28125 Z M 13.921875 -8.28125 "/></g></g></g><g fill="#000000" fill-opacity="1"><g transform="translate(220.70147, 173.512633)"><g><path d="M 13.515625 -16.578125 C 13.929688 -16.578125 14.265625 -16.4375 14.515625 -16.15625 C 14.765625 -15.882812 14.890625 -15.539062 14.890625 -15.125 L 14.890625 -6.578125 C 14.890625 -5.265625 14.609375 -4.101562 14.046875 -3.09375 C 13.492188 -2.082031 12.726562 -1.289062 11.75 -0.71875 C 10.769531 -0.15625 9.632812 0.125 8.34375 0.125 C 7.050781 0.125 5.910156 -0.15625 4.921875 -0.71875 C 3.941406 -1.289062 3.171875 -2.082031 2.609375 -3.09375 C 2.046875 -4.101562 1.765625 -5.265625 1.765625 -6.578125 L 1.765625 -15.125 C 1.765625 -15.539062 1.90625 -15.882812 2.1875 -16.15625 C 2.476562 -16.4375 2.84375 -16.578125 3.28125 -16.578125 C 3.644531 -16.578125 3.972656 -16.4375 4.265625 -16.15625 C 4.554688 -15.882812 4.703125 -15.539062 4.703125 -15.125 L 4.703125 -6.578125 C 4.703125 -5.785156 4.867188 -5.101562 5.203125 -4.53125 C 5.546875 -3.957031 6 -3.507812 6.5625 -3.1875 C 7.125 -2.875 7.71875 -2.71875 8.34375 -2.71875 C 9.019531 -2.71875 9.648438 -2.875 10.234375 -3.1875 C 10.816406 -3.507812 11.289062 -3.957031 11.65625 -4.53125 C 12.019531 -5.101562 12.203125 -5.785156 12.203125 -6.578125 L 12.203125 -15.125 C 12.203125 -15.539062 12.316406 -15.882812 12.546875 -16.15625 C 12.785156 -16.4375 13.109375 -16.578125 13.515625 -16.578125 Z M 13.515625 -16.578125 "/></g></g></g><g fill="#000000" fill-opacity="1"><g transform="translate(237.359092, 173.512633)"><g><path d="M 14.328125 -16.546875 C 14.703125 -16.546875 15.007812 -16.421875 15.25 -16.171875 C 15.488281 -15.921875 15.609375 -15.601562 15.609375 -15.21875 L 15.609375 -1.4375 C 15.609375 -1.03125 15.46875 -0.6875 15.1875 -0.40625 C 14.914062 -0.132812 14.570312 0 14.15625 0 C 13.957031 0 13.75 -0.0351562 13.53125 -0.109375 C 13.320312 -0.179688 13.160156 -0.28125 13.046875 -0.40625 L 3.765625 -12.203125 L 4.375 -12.578125 L 4.375 -1.328125 C 4.375 -0.941406 4.25 -0.625 4 -0.375 C 3.757812 -0.125 3.441406 0 3.046875 0 C 2.671875 0 2.363281 -0.125 2.125 -0.375 C 1.882812 -0.625 1.765625 -0.941406 1.765625 -1.328125 L 1.765625 -15.109375 C 1.765625 -15.515625 1.898438 -15.851562 2.171875 -16.125 C 2.453125 -16.40625 2.800781 -16.546875 3.21875 -16.546875 C 3.4375 -16.546875 3.660156 -16.5 3.890625 -16.40625 C 4.128906 -16.320312 4.304688 -16.195312 4.421875 -16.03125 L 13.421875 -4.53125 L 13.03125 -4.25 L 13.03125 -15.21875 C 13.03125 -15.601562 13.144531 -15.921875 13.375 -16.171875 C 13.613281 -16.421875 13.929688 -16.546875 14.328125 -16.546875 Z M 14.328125 -16.546875 "/></g></g></g><g fill="#000000" fill-opacity="1"><g transform="translate(254.725554, 173.512633)"><g><path d="M 8.859375 -16.546875 C 9.992188 -16.546875 11.003906 -16.332031 11.890625 -15.90625 C 12.773438 -15.476562 13.519531 -14.882812 14.125 -14.125 C 14.726562 -13.363281 15.179688 -12.476562 15.484375 -11.46875 C 15.796875 -10.46875 15.953125 -9.40625 15.953125 -8.28125 C 15.953125 -6.75 15.675781 -5.351562 15.125 -4.09375 C 14.570312 -2.84375 13.769531 -1.847656 12.71875 -1.109375 C 11.675781 -0.367188 10.390625 0 8.859375 0 L 3.21875 0 C 2.800781 0 2.453125 -0.132812 2.171875 -0.40625 C 1.898438 -0.6875 1.765625 -1.03125 1.765625 -1.4375 L 1.765625 -15.109375 C 1.765625 -15.515625 1.898438 -15.851562 2.171875 -16.125 C 2.453125 -16.40625 2.800781 -16.546875 3.21875 -16.546875 Z M 8.625 -2.71875 C 9.625 -2.71875 10.4375 -2.972656 11.0625 -3.484375 C 11.695312 -3.992188 12.160156 -4.671875 12.453125 -5.515625 C 12.742188 -6.359375 12.890625 -7.28125 12.890625 -8.28125 C 12.890625 -9.019531 12.804688 -9.722656 12.640625 -10.390625 C 12.472656 -11.054688 12.210938 -11.644531 11.859375 -12.15625 C 11.515625 -12.675781 11.070312 -13.082031 10.53125 -13.375 C 10 -13.675781 9.363281 -13.828125 8.625 -13.828125 L 4.484375 -13.828125 L 4.734375 -14.046875 L 4.734375 -2.453125 L 4.59375 -2.71875 Z M 8.625 -2.71875 "/></g></g></g><g fill="#000000" fill-opacity="1"><g transform="translate(271.619451, 173.512633)"><g><path d="M 7.84375 -12.84375 L 2.75 -0.828125 C 2.632812 -0.523438 2.460938 -0.289062 2.234375 -0.125 C 2.003906 0.0390625 1.753906 0.125 1.484375 0.125 C 1.054688 0.125 0.738281 0.00390625 0.53125 -0.234375 C 0.332031 -0.472656 0.234375 -0.765625 0.234375 -1.109375 C 0.234375 -1.253906 0.257812 -1.40625 0.3125 -1.5625 L 6.1875 -15.703125 C 6.320312 -16.015625 6.515625 -16.253906 6.765625 -16.421875 C 7.023438 -16.597656 7.304688 -16.671875 7.609375 -16.640625 C 7.890625 -16.640625 8.148438 -16.554688 8.390625 -16.390625 C 8.640625 -16.222656 8.820312 -15.992188 8.9375 -15.703125 L 14.75 -1.84375 C 14.832031 -1.632812 14.875 -1.445312 14.875 -1.28125 C 14.875 -0.851562 14.734375 -0.507812 14.453125 -0.25 C 14.179688 0 13.878906 0.125 13.546875 0.125 C 13.265625 0.125 13.007812 0.0351562 12.78125 -0.140625 C 12.550781 -0.316406 12.375 -0.550781 12.25 -0.84375 L 7.15625 -12.6875 Z M 3.46875 -3.71875 L 4.78125 -6.4375 L 11.15625 -6.4375 L 11.609375 -3.71875 Z M 3.46875 -3.71875 "/></g></g></g><g fill="#000000" fill-opacity="1"><g transform="translate(286.717641, 173.512633)"><g><path d="M 7.375 0 C 6.9375 0 6.570312 -0.132812 6.28125 -0.40625 C 6 -0.6875 5.859375 -1.03125 5.859375 -1.4375 L 5.859375 -15.15625 L 8.9375 -15.15625 L 8.9375 -1.4375 C 8.9375 -1.03125 8.789062 -0.6875 8.5 -0.40625 C 8.207031 -0.132812 7.832031 0 7.375 0 Z M 2.15625 -13.828125 C 1.738281 -13.828125 1.390625 -13.953125 1.109375 -14.203125 C 0.835938 -14.460938 0.703125 -14.796875 0.703125 -15.203125 C 0.703125 -15.609375 0.835938 -15.929688 1.109375 -16.171875 C 1.390625 -16.421875 1.738281 -16.546875 2.15625 -16.546875 L 12.640625 -16.546875 C 13.054688 -16.546875 13.398438 -16.421875 13.671875 -16.171875 C 13.953125 -15.921875 14.09375 -15.585938 14.09375 -15.171875 C 14.09375 -14.765625 13.953125 -14.4375 13.671875 -14.1875 C 13.398438 -13.945312 13.054688 -13.828125 12.640625 -13.828125 Z M 2.15625 -13.828125 "/></g></g></g><g fill="#000000" fill-opacity="1"><g transform="translate(301.508662, 173.512633)"><g><path d="M 4.734375 -1.4375 C 4.734375 -1.03125 4.582031 -0.6875 4.28125 -0.40625 C 3.976562 -0.132812 3.628906 0 3.234375 0 C 2.796875 0 2.441406 -0.132812 2.171875 -0.40625 C 1.898438 -0.6875 1.765625 -1.03125 1.765625 -1.4375 L 1.765625 -15.109375 C 1.765625 -15.515625 1.90625 -15.851562 2.1875 -16.125 C 2.476562 -16.40625 2.84375 -16.546875 3.28125 -16.546875 C 3.664062 -16.546875 4.003906 -16.40625 4.296875 -16.125 C 4.585938 -15.851562 4.734375 -15.515625 4.734375 -15.109375 Z M 4.734375 -1.4375 "/></g></g></g><g fill="#000000" fill-opacity="1"><g transform="translate(308.006311, 173.512633)"><g><path d="M 17 -8.28125 C 17 -7.09375 16.800781 -5.984375 16.40625 -4.953125 C 16.007812 -3.929688 15.453125 -3.03125 14.734375 -2.25 C 14.023438 -1.476562 13.175781 -0.867188 12.1875 -0.421875 C 11.195312 0.015625 10.117188 0.234375 8.953125 0.234375 C 7.785156 0.234375 6.710938 0.015625 5.734375 -0.421875 C 4.765625 -0.867188 3.921875 -1.476562 3.203125 -2.25 C 2.484375 -3.03125 1.925781 -3.929688 1.53125 -4.953125 C 1.144531 -5.984375 0.953125 -7.09375 0.953125 -8.28125 C 0.953125 -9.457031 1.144531 -10.554688 1.53125 -11.578125 C 1.925781 -12.609375 2.484375 -13.515625 3.203125 -14.296875 C 3.921875 -15.078125 4.765625 -15.6875 5.734375 -16.125 C 6.710938 -16.5625 7.785156 -16.78125 8.953125 -16.78125 C 10.117188 -16.78125 11.195312 -16.5625 12.1875 -16.125 C 13.175781 -15.6875 14.023438 -15.078125 14.734375 -14.296875 C 15.453125 -13.515625 16.007812 -12.609375 16.40625 -11.578125 C 16.800781 -10.554688 17 -9.457031 17 -8.28125 Z M 13.921875 -8.28125 C 13.921875 -9.332031 13.707031 -10.285156 13.28125 -11.140625 C 12.851562 -12.003906 12.269531 -12.6875 11.53125 -13.1875 C 10.789062 -13.695312 9.929688 -13.953125 8.953125 -13.953125 C 7.984375 -13.953125 7.125 -13.695312 6.375 -13.1875 C 5.632812 -12.6875 5.054688 -12.007812 4.640625 -11.15625 C 4.222656 -10.300781 4.015625 -9.34375 4.015625 -8.28125 C 4.015625 -7.21875 4.222656 -6.253906 4.640625 -5.390625 C 5.054688 -4.535156 5.632812 -3.851562 6.375 -3.34375 C 7.125 -2.84375 7.984375 -2.59375 8.953125 -2.59375 C 9.929688 -2.59375 10.789062 -2.84375 11.53125 -3.34375 C 12.269531 -3.851562 12.851562 -4.535156 13.28125 -5.390625 C 13.707031 -6.253906 13.921875 -7.21875 13.921875 -8.28125 Z M 13.921875 -8.28125 "/></g></g></g><g fill="#000000" fill-opacity="1"><g transform="translate(325.939841, 173.512633)"><g><path d="M 14.328125 -16.546875 C 14.703125 -16.546875 15.007812 -16.421875 15.25 -16.171875 C 15.488281 -15.921875 15.609375 -15.601562 15.609375 -15.21875 L 15.609375 -1.4375 C 15.609375 -1.03125 15.46875 -0.6875 15.1875 -0.40625 C 14.914062 -0.132812 14.570312 0 14.15625 0 C 13.957031 0 13.75 -0.0351562 13.53125 -0.109375 C 13.320312 -0.179688 13.160156 -0.28125 13.046875 -0.40625 L 3.765625 -12.203125 L 4.375 -12.578125 L 4.375 -1.328125 C 4.375 -0.941406 4.25 -0.625 4 -0.375 C 3.757812 -0.125 3.441406 0 3.046875 0 C 2.671875 0 2.363281 -0.125 2.125 -0.375 C 1.882812 -0.625 1.765625 -0.941406 1.765625 -1.328125 L 1.765625 -15.109375 C 1.765625 -15.515625 1.898438 -15.851562 2.171875 -16.125 C 2.453125 -16.40625 2.800781 -16.546875 3.21875 -16.546875 C 3.4375 -16.546875 3.660156 -16.5 3.890625 -16.40625 C 4.128906 -16.320312 4.304688 -16.195312 4.421875 -16.03125 L 13.421875 -4.53125 L 13.03125 -4.25 L 13.03125 -15.21875 C 13.03125 -15.601562 13.144531 -15.921875 13.375 -16.171875 C 13.613281 -16.421875 13.929688 -16.546875 14.328125 -16.546875 Z M 14.328125 -16.546875 "/></g></g></g><g fill="#5ce1e6" fill-opacity="0.302"><g transform="translate(141.558848, 195.402585)"><g><path d="M 1.375 0 L 1.375 -9.453125 L 6.796875 -9.453125 L 6.796875 -8.34375 L 2.5625 -8.34375 L 2.5625 -5.078125 L 6.4375 -5.078125 L 6.4375 -3.984375 L 2.5625 -3.984375 L 2.5625 0 Z M 1.375 0 "/></g></g></g><g fill="#5ce1e6" fill-opacity="0.302"><g transform="translate(149.091795, 195.402585)"><g><path d="M 5.671875 0.171875 C 4.710938 0.171875 3.863281 -0.0351562 3.125 -0.453125 C 2.394531 -0.867188 1.820312 -1.445312 1.40625 -2.1875 C 0.988281 -2.925781 0.78125 -3.769531 0.78125 -4.71875 C 0.78125 -5.6875 0.988281 -6.535156 1.40625 -7.265625 C 1.820312 -8.003906 2.394531 -8.582031 3.125 -9 C 3.863281 -9.414062 4.710938 -9.625 5.671875 -9.625 C 6.628906 -9.625 7.472656 -9.414062 8.203125 -9 C 8.941406 -8.582031 9.519531 -8.003906 9.9375 -7.265625 C 10.363281 -6.535156 10.578125 -5.6875 10.578125 -4.71875 C 10.578125 -3.769531 10.363281 -2.925781 9.9375 -2.1875 C 9.519531 -1.445312 8.941406 -0.867188 8.203125 -0.453125 C 7.472656 -0.0351562 6.628906 0.171875 5.671875 0.171875 Z M 2 -4.71875 C 2 -3.988281 2.148438 -3.34375 2.453125 -2.78125 C 2.765625 -2.226562 3.195312 -1.796875 3.75 -1.484375 C 4.3125 -1.171875 4.953125 -1.015625 5.671875 -1.015625 C 6.398438 -1.015625 7.035156 -1.171875 7.578125 -1.484375 C 8.128906 -1.796875 8.5625 -2.226562 8.875 -2.78125 C 9.1875 -3.34375 9.34375 -3.988281 9.34375 -4.71875 C 9.34375 -5.457031 9.1875 -6.101562 8.875 -6.65625 C 8.5625 -7.21875 8.128906 -7.65625 7.578125 -7.96875 C 7.035156 -8.28125 6.398438 -8.4375 5.671875 -8.4375 C 4.953125 -8.4375 4.3125 -8.28125 3.75 -7.96875 C 3.195312 -7.65625 2.765625 -7.21875 2.453125 -6.65625 C 2.148438 -6.101562 2 -5.457031 2 -4.71875 Z M 2 -4.71875 "/></g></g></g><g fill="#5ce1e6" fill-opacity="0.302"><g transform="translate(160.431722, 195.402585)"><g><path d="M 1.375 0 L 1.375 -9.453125 L 4.984375 -9.453125 C 5.640625 -9.453125 6.207031 -9.328125 6.6875 -9.078125 C 7.175781 -8.828125 7.554688 -8.476562 7.828125 -8.03125 C 8.097656 -7.582031 8.234375 -7.039062 8.234375 -6.40625 C 8.234375 -5.644531 8.035156 -5.015625 7.640625 -4.515625 C 7.242188 -4.015625 6.695312 -3.679688 6 -3.515625 L 8.390625 0 L 6.953125 0 L 4.640625 -3.390625 L 2.5625 -3.390625 L 2.5625 0 Z M 2.5625 -4.515625 L 4.84375 -4.515625 C 5.539062 -4.515625 6.078125 -4.679688 6.453125 -5.015625 C 6.828125 -5.347656 7.015625 -5.8125 7.015625 -6.40625 C 7.015625 -7.007812 6.828125 -7.476562 6.453125 -7.8125 C 6.078125 -8.144531 5.539062 -8.3125 4.84375 -8.3125 L 2.5625 -8.3125 Z M 2.5625 -4.515625 "/></g></g></g><g fill="#5ce1e6" fill-opacity="0.302"><g transform="translate(169.625161, 195.402585)"><g/></g></g><g fill="#5ce1e6" fill-opacity="0.302"><g transform="translate(172.973141, 195.402585)"><g><path d="M 3.65625 0 L 3.65625 -8.3125 L 0.453125 -8.3125 L 0.453125 -9.453125 L 8.03125 -9.453125 L 8.03125 -8.3125 L 4.84375 -8.3125 L 4.84375 0 Z M 3.65625 0 "/></g></g></g><g fill="#5ce1e6" fill-opacity="0.302"><g transform="translate(181.478092, 195.402585)"><g><path d="M 1.375 0 L 1.375 -9.453125 L 7.109375 -9.453125 L 7.109375 -8.34375 L 2.5625 -8.34375 L 2.5625 -5.359375 L 6.78125 -5.359375 L 6.78125 -4.265625 L 2.5625 -4.265625 L 2.5625 -1.109375 L 7.265625 -1.109375 L 7.265625 0 Z M 1.375 0 "/></g></g></g><g fill="#5ce1e6" fill-opacity="0.302"><g transform="translate(189.618537, 195.402585)"><g><path d="M 5.5625 0.171875 C 4.863281 0.171875 4.222656 0.0507812 3.640625 -0.1875 C 3.054688 -0.425781 2.550781 -0.765625 2.125 -1.203125 C 1.695312 -1.640625 1.363281 -2.15625 1.125 -2.75 C 0.894531 -3.351562 0.78125 -4.007812 0.78125 -4.71875 C 0.78125 -5.4375 0.894531 -6.09375 1.125 -6.6875 C 1.363281 -7.289062 1.695312 -7.804688 2.125 -8.234375 C 2.550781 -8.671875 3.054688 -9.007812 3.640625 -9.25 C 4.222656 -9.5 4.863281 -9.625 5.5625 -9.625 C 6.3125 -9.625 7 -9.484375 7.625 -9.203125 C 8.25 -8.929688 8.78125 -8.539062 9.21875 -8.03125 C 9.664062 -7.53125 9.992188 -6.929688 10.203125 -6.234375 L 8.9375 -6.234375 C 8.695312 -6.921875 8.273438 -7.457031 7.671875 -7.84375 C 7.078125 -8.238281 6.390625 -8.4375 5.609375 -8.4375 C 4.898438 -8.4375 4.273438 -8.28125 3.734375 -7.96875 C 3.191406 -7.65625 2.765625 -7.21875 2.453125 -6.65625 C 2.148438 -6.09375 2 -5.445312 2 -4.71875 C 2 -3.988281 2.148438 -3.34375 2.453125 -2.78125 C 2.765625 -2.226562 3.191406 -1.796875 3.734375 -1.484375 C 4.273438 -1.171875 4.898438 -1.015625 5.609375 -1.015625 C 6.398438 -1.015625 7.109375 -1.21875 7.734375 -1.625 C 8.359375 -2.039062 8.789062 -2.609375 9.03125 -3.328125 L 10.28125 -3.328125 C 10.09375 -2.617188 9.769531 -2.003906 9.3125 -1.484375 C 8.863281 -0.960938 8.316406 -0.554688 7.671875 -0.265625 C 7.023438 0.0234375 6.320312 0.171875 5.5625 0.171875 Z M 5.5625 0.171875 "/></g></g></g><g fill="#5ce1e6" fill-opacity="0.302"><g transform="translate(200.63447, 195.402585)"><g><path d="M 7.578125 0 L 7.578125 -4.25 L 2.5625 -4.25 L 2.5625 0 L 1.375 0 L 1.375 -9.453125 L 2.5625 -9.453125 L 2.5625 -5.390625 L 7.578125 -5.390625 L 7.578125 -9.453125 L 8.765625 -9.453125 L 8.765625 0 Z M 7.578125 0 "/></g></g></g><g fill="#5ce1e6" fill-opacity="0.302"><g transform="translate(210.772905, 195.402585)"><g><path d="M 1.375 0 L 1.375 -9.453125 L 2.5 -9.453125 L 7.71875 -2.046875 L 7.71875 -9.453125 L 8.890625 -9.453125 L 8.890625 0 L 7.78125 0 L 2.546875 -7.390625 L 2.546875 0 Z M 1.375 0 "/></g></g></g><g fill="#5ce1e6" fill-opacity="0.302"><g transform="translate(221.032842, 195.402585)"><g><path d="M 5.671875 0.171875 C 4.710938 0.171875 3.863281 -0.0351562 3.125 -0.453125 C 2.394531 -0.867188 1.820312 -1.445312 1.40625 -2.1875 C 0.988281 -2.925781 0.78125 -3.769531 0.78125 -4.71875 C 0.78125 -5.6875 0.988281 -6.535156 1.40625 -7.265625 C 1.820312 -8.003906 2.394531 -8.582031 3.125 -9 C 3.863281 -9.414062 4.710938 -9.625 5.671875 -9.625 C 6.628906 -9.625 7.472656 -9.414062 8.203125 -9 C 8.941406 -8.582031 9.519531 -8.003906 9.9375 -7.265625 C 10.363281 -6.535156 10.578125 -5.6875 10.578125 -4.71875 C 10.578125 -3.769531 10.363281 -2.925781 9.9375 -2.1875 C 9.519531 -1.445312 8.941406 -0.867188 8.203125 -0.453125 C 7.472656 -0.0351562 6.628906 0.171875 5.671875 0.171875 Z M 2 -4.71875 C 2 -3.988281 2.148438 -3.34375 2.453125 -2.78125 C 2.765625 -2.226562 3.195312 -1.796875 3.75 -1.484375 C 4.3125 -1.171875 4.953125 -1.015625 5.671875 -1.015625 C 6.398438 -1.015625 7.035156 -1.171875 7.578125 -1.484375 C 8.128906 -1.796875 8.5625 -2.226562 8.875 -2.78125 C 9.1875 -3.34375 9.34375 -3.988281 9.34375 -4.71875 C 9.34375 -5.457031 9.1875 -6.101562 8.875 -6.65625 C 8.5625 -7.21875 8.128906 -7.65625 7.578125 -7.96875 C 7.035156 -8.28125 6.398438 -8.4375 5.671875 -8.4375 C 4.953125 -8.4375 4.3125 -8.28125 3.75 -7.96875 C 3.195312 -7.65625 2.765625 -7.21875 2.453125 -6.65625 C 2.148438 -6.101562 2 -5.457031 2 -4.71875 Z M 2 -4.71875 "/></g></g></g><g fill="#5ce1e6" fill-opacity="0.302"><g transform="translate(232.372768, 195.402585)"><g><path d="M 1.375 0 L 1.375 -9.453125 L 2.5625 -9.453125 L 2.5625 -1.140625 L 7.15625 -1.140625 L 7.15625 0 Z M 1.375 0 "/></g></g></g><g fill="#5ce1e6" fill-opacity="0.302"><g transform="translate(239.946216, 195.402585)"><g><path d="M 5.671875 0.171875 C 4.710938 0.171875 3.863281 -0.0351562 3.125 -0.453125 C 2.394531 -0.867188 1.820312 -1.445312 1.40625 -2.1875 C 0.988281 -2.925781 0.78125 -3.769531 0.78125 -4.71875 C 0.78125 -5.6875 0.988281 -6.535156 1.40625 -7.265625 C 1.820312 -8.003906 2.394531 -8.582031 3.125 -9 C 3.863281 -9.414062 4.710938 -9.625 5.671875 -9.625 C 6.628906 -9.625 7.472656 -9.414062 8.203125 -9 C 8.941406 -8.582031 9.519531 -8.003906 9.9375 -7.265625 C 10.363281 -6.535156 10.578125 -5.6875 10.578125 -4.71875 C 10.578125 -3.769531 10.363281 -2.925781 9.9375 -2.1875 C 9.519531 -1.445312 8.941406 -0.867188 8.203125 -0.453125 C 7.472656 -0.0351562 6.628906 0.171875 5.671875 0.171875 Z M 2 -4.71875 C 2 -3.988281 2.148438 -3.34375 2.453125 -2.78125 C 2.765625 -2.226562 3.195312 -1.796875 3.75 -1.484375 C 4.3125 -1.171875 4.953125 -1.015625 5.671875 -1.015625 C 6.398438 -1.015625 7.035156 -1.171875 7.578125 -1.484375 C 8.128906 -1.796875 8.5625 -2.226562 8.875 -2.78125 C 9.1875 -3.34375 9.34375 -3.988281 9.34375 -4.71875 C 9.34375 -5.457031 9.1875 -6.101562 8.875 -6.65625 C 8.5625 -7.21875 8.128906 -7.65625 7.578125 -7.96875 C 7.035156 -8.28125 6.398438 -8.4375 5.671875 -8.4375 C 4.953125 -8.4375 4.3125 -8.28125 3.75 -7.96875 C 3.195312 -7.65625 2.765625 -7.21875 2.453125 -6.65625 C 2.148438 -6.101562 2 -5.457031 2 -4.71875 Z M 2 -4.71875 "/></g></g></g><g fill="#5ce1e6" fill-opacity="0.302"><g transform="translate(251.286143, 195.402585)"><g><path d="M 5.59375 0.171875 C 4.894531 0.171875 4.253906 0.0507812 3.671875 -0.1875 C 3.085938 -0.425781 2.578125 -0.765625 2.140625 -1.203125 C 1.710938 -1.640625 1.378906 -2.15625 1.140625 -2.75 C 0.898438 -3.351562 0.78125 -4.007812 0.78125 -4.71875 C 0.78125 -5.4375 0.894531 -6.09375 1.125 -6.6875 C 1.363281 -7.28125 1.695312 -7.796875 2.125 -8.234375 C 2.5625 -8.671875 3.066406 -9.007812 3.640625 -9.25 C 4.222656 -9.5 4.863281 -9.625 5.5625 -9.625 C 6.28125 -9.625 6.945312 -9.492188 7.5625 -9.234375 C 8.175781 -8.972656 8.703125 -8.609375 9.140625 -8.140625 C 9.585938 -7.671875 9.910156 -7.125 10.109375 -6.5 L 8.8125 -6.5 C 8.519531 -7.113281 8.09375 -7.585938 7.53125 -7.921875 C 6.976562 -8.265625 6.335938 -8.4375 5.609375 -8.4375 C 4.898438 -8.4375 4.273438 -8.28125 3.734375 -7.96875 C 3.191406 -7.65625 2.765625 -7.21875 2.453125 -6.65625 C 2.148438 -6.09375 2 -5.445312 2 -4.71875 C 2 -3.988281 2.148438 -3.34375 2.453125 -2.78125 C 2.765625 -2.226562 3.191406 -1.796875 3.734375 -1.484375 C 4.285156 -1.171875 4.910156 -1.015625 5.609375 -1.015625 C 6.253906 -1.015625 6.820312 -1.140625 7.3125 -1.390625 C 7.8125 -1.640625 8.210938 -1.988281 8.515625 -2.4375 C 8.828125 -2.882812 9.023438 -3.40625 9.109375 -4 L 5.265625 -4 L 5.265625 -5.125 L 10.390625 -5.125 C 10.410156 -4.09375 10.21875 -3.175781 9.8125 -2.375 C 9.414062 -1.582031 8.851562 -0.957031 8.125 -0.5 C 7.40625 -0.0507812 6.5625 0.171875 5.59375 0.171875 Z M 5.59375 0.171875 "/></g></g></g><g fill="#5ce1e6" fill-opacity="0.302"><g transform="translate(262.423578, 195.402585)"><g><path d="M 3.78125 0 L 3.78125 -3.40625 L 0.234375 -9.453125 L 1.609375 -9.453125 L 3.140625 -6.796875 L 4.375 -4.671875 L 7.15625 -9.453125 L 8.484375 -9.453125 L 4.9375 -3.40625 L 4.9375 0 Z M 3.78125 0 "/></g></g></g><g fill="#5ce1e6" fill-opacity="0.502"><g transform="translate(141.046767, 195.511422)"><g><path d="M 1.375 0 L 1.375 -9.453125 L 6.796875 -9.453125 L 6.796875 -8.34375 L 2.5625 -8.34375 L 2.5625 -5.078125 L 6.4375 -5.078125 L 6.4375 -3.984375 L 2.5625 -3.984375 L 2.5625 0 Z M 1.375 0 "/></g></g></g><g fill="#5ce1e6" fill-opacity="0.502"><g transform="translate(148.579714, 195.511422)"><g><path d="M 5.671875 0.171875 C 4.710938 0.171875 3.863281 -0.0351562 3.125 -0.453125 C 2.394531 -0.867188 1.820312 -1.445312 1.40625 -2.1875 C 0.988281 -2.925781 0.78125 -3.769531 0.78125 -4.71875 C 0.78125 -5.6875 0.988281 -6.535156 1.40625 -7.265625 C 1.820312 -8.003906 2.394531 -8.582031 3.125 -9 C 3.863281 -9.414062 4.710938 -9.625 5.671875 -9.625 C 6.628906 -9.625 7.472656 -9.414062 8.203125 -9 C 8.941406 -8.582031 9.519531 -8.003906 9.9375 -7.265625 C 10.363281 -6.535156 10.578125 -5.6875 10.578125 -4.71875 C 10.578125 -3.769531 10.363281 -2.925781 9.9375 -2.1875 C 9.519531 -1.445312 8.941406 -0.867188 8.203125 -0.453125 C 7.472656 -0.0351562 6.628906 0.171875 5.671875 0.171875 Z M 2 -4.71875 C 2 -3.988281 2.148438 -3.34375 2.453125 -2.78125 C 2.765625 -2.226562 3.195312 -1.796875 3.75 -1.484375 C 4.3125 -1.171875 4.953125 -1.015625 5.671875 -1.015625 C 6.398438 -1.015625 7.035156 -1.171875 7.578125 -1.484375 C 8.128906 -1.796875 8.5625 -2.226562 8.875 -2.78125 C 9.1875 -3.34375 9.34375 -3.988281 9.34375 -4.71875 C 9.34375 -5.457031 9.1875 -6.101562 8.875 -6.65625 C 8.5625 -7.21875 8.128906 -7.65625 7.578125 -7.96875 C 7.035156 -8.28125 6.398438 -8.4375 5.671875 -8.4375 C 4.953125 -8.4375 4.3125 -8.28125 3.75 -7.96875 C 3.195312 -7.65625 2.765625 -7.21875 2.453125 -6.65625 C 2.148438 -6.101562 2 -5.457031 2 -4.71875 Z M 2 -4.71875 "/></g></g></g><g fill="#5ce1e6" fill-opacity="0.502"><g transform="translate(159.919641, 195.511422)"><g><path d="M 1.375 0 L 1.375 -9.453125 L 4.984375 -9.453125 C 5.640625 -9.453125 6.207031 -9.328125 6.6875 -9.078125 C 7.175781 -8.828125 7.554688 -8.476562 7.828125 -8.03125 C 8.097656 -7.582031 8.234375 -7.039062 8.234375 -6.40625 C 8.234375 -5.644531 8.035156 -5.015625 7.640625 -4.515625 C 7.242188 -4.015625 6.695312 -3.679688 6 -3.515625 L 8.390625 0 L 6.953125 0 L 4.640625 -3.390625 L 2.5625 -3.390625 L 2.5625 0 Z M 2.5625 -4.515625 L 4.84375 -4.515625 C 5.539062 -4.515625 6.078125 -4.679688 6.453125 -5.015625 C 6.828125 -5.347656 7.015625 -5.8125 7.015625 -6.40625 C 7.015625 -7.007812 6.828125 -7.476562 6.453125 -7.8125 C 6.078125 -8.144531 5.539062 -8.3125 4.84375 -8.3125 L 2.5625 -8.3125 Z M 2.5625 -4.515625 "/></g></g></g><g fill="#5ce1e6" fill-opacity="0.502"><g transform="translate(169.11308, 195.511422)"><g/></g></g><g fill="#5ce1e6" fill-opacity="0.502"><g transform="translate(172.46106, 195.511422)"><g><path d="M 3.65625 0 L 3.65625 -8.3125 L 0.453125 -8.3125 L 0.453125 -9.453125 L 8.03125 -9.453125 L 8.03125 -8.3125 L 4.84375 -8.3125 L 4.84375 0 Z M 3.65625 0 "/></g></g></g><g fill="#5ce1e6" fill-opacity="0.502"><g transform="translate(180.966011, 195.511422)"><g><path d="M 1.375 0 L 1.375 -9.453125 L 7.109375 -9.453125 L 7.109375 -8.34375 L 2.5625 -8.34375 L 2.5625 -5.359375 L 6.78125 -5.359375 L 6.78125 -4.265625 L 2.5625 -4.265625 L 2.5625 -1.109375 L 7.265625 -1.109375 L 7.265625 0 Z M 1.375 0 "/></g></g></g><g fill="#5ce1e6" fill-opacity="0.502"><g transform="translate(189.106456, 195.511422)"><g><path d="M 5.5625 0.171875 C 4.863281 0.171875 4.222656 0.0507812 3.640625 -0.1875 C 3.054688 -0.425781 2.550781 -0.765625 2.125 -1.203125 C 1.695312 -1.640625 1.363281 -2.15625 1.125 -2.75 C 0.894531 -3.351562 0.78125 -4.007812 0.78125 -4.71875 C 0.78125 -5.4375 0.894531 -6.09375 1.125 -6.6875 C 1.363281 -7.289062 1.695312 -7.804688 2.125 -8.234375 C 2.550781 -8.671875 3.054688 -9.007812 3.640625 -9.25 C 4.222656 -9.5 4.863281 -9.625 5.5625 -9.625 C 6.3125 -9.625 7 -9.484375 7.625 -9.203125 C 8.25 -8.929688 8.78125 -8.539062 9.21875 -8.03125 C 9.664062 -7.53125 9.992188 -6.929688 10.203125 -6.234375 L 8.9375 -6.234375 C 8.695312 -6.921875 8.273438 -7.457031 7.671875 -7.84375 C 7.078125 -8.238281 6.390625 -8.4375 5.609375 -8.4375 C 4.898438 -8.4375 4.273438 -8.28125 3.734375 -7.96875 C 3.191406 -7.65625 2.765625 -7.21875 2.453125 -6.65625 C 2.148438 -6.09375 2 -5.445312 2 -4.71875 C 2 -3.988281 2.148438 -3.34375 2.453125 -2.78125 C 2.765625 -2.226562 3.191406 -1.796875 3.734375 -1.484375 C 4.273438 -1.171875 4.898438 -1.015625 5.609375 -1.015625 C 6.398438 -1.015625 7.109375 -1.21875 7.734375 -1.625 C 8.359375 -2.039062 8.789062 -2.609375 9.03125 -3.328125 L 10.28125 -3.328125 C 10.09375 -2.617188 9.769531 -2.003906 9.3125 -1.484375 C 8.863281 -0.960938 8.316406 -0.554688 7.671875 -0.265625 C 7.023438 0.0234375 6.320312 0.171875 5.5625 0.171875 Z M 5.5625 0.171875 "/></g></g></g><g fill="#5ce1e6" fill-opacity="0.502"><g transform="translate(200.122389, 195.511422)"><g><path d="M 7.578125 0 L 7.578125 -4.25 L 2.5625 -4.25 L 2.5625 0 L 1.375 0 L 1.375 -9.453125 L 2.5625 -9.453125 L 2.5625 -5.390625 L 7.578125 -5.390625 L 7.578125 -9.453125 L 8.765625 -9.453125 L 8.765625 0 Z M 7.578125 0 "/></g></g></g><g fill="#5ce1e6" fill-opacity="0.502"><g transform="translate(210.260824, 195.511422)"><g><path d="M 1.375 0 L 1.375 -9.453125 L 2.5 -9.453125 L 7.71875 -2.046875 L 7.71875 -9.453125 L 8.890625 -9.453125 L 8.890625 0 L 7.78125 0 L 2.546875 -7.390625 L 2.546875 0 Z M 1.375 0 "/></g></g></g><g fill="#5ce1e6" fill-opacity="0.502"><g transform="translate(220.520761, 195.511422)"><g><path d="M 5.671875 0.171875 C 4.710938 0.171875 3.863281 -0.0351562 3.125 -0.453125 C 2.394531 -0.867188 1.820312 -1.445312 1.40625 -2.1875 C 0.988281 -2.925781 0.78125 -3.769531 0.78125 -4.71875 C 0.78125 -5.6875 0.988281 -6.535156 1.40625 -7.265625 C 1.820312 -8.003906 2.394531 -8.582031 3.125 -9 C 3.863281 -9.414062 4.710938 -9.625 5.671875 -9.625 C 6.628906 -9.625 7.472656 -9.414062 8.203125 -9 C 8.941406 -8.582031 9.519531 -8.003906 9.9375 -7.265625 C 10.363281 -6.535156 10.578125 -5.6875 10.578125 -4.71875 C 10.578125 -3.769531 10.363281 -2.925781 9.9375 -2.1875 C 9.519531 -1.445312 8.941406 -0.867188 8.203125 -0.453125 C 7.472656 -0.0351562 6.628906 0.171875 5.671875 0.171875 Z M 2 -4.71875 C 2 -3.988281 2.148438 -3.34375 2.453125 -2.78125 C 2.765625 -2.226562 3.195312 -1.796875 3.75 -1.484375 C 4.3125 -1.171875 4.953125 -1.015625 5.671875 -1.015625 C 6.398438 -1.015625 7.035156 -1.171875 7.578125 -1.484375 C 8.128906 -1.796875 8.5625 -2.226562 8.875 -2.78125 C 9.1875 -3.34375 9.34375 -3.988281 9.34375 -4.71875 C 9.34375 -5.457031 9.1875 -6.101562 8.875 -6.65625 C 8.5625 -7.21875 8.128906 -7.65625 7.578125 -7.96875 C 7.035156 -8.28125 6.398438 -8.4375 5.671875 -8.4375 C 4.953125 -8.4375 4.3125 -8.28125 3.75 -7.96875 C 3.195312 -7.65625 2.765625 -7.21875 2.453125 -6.65625 C 2.148438 -6.101562 2 -5.457031 2 -4.71875 Z M 2 -4.71875 "/></g></g></g><g fill="#5ce1e6" fill-opacity="0.502"><g transform="translate(231.860688, 195.511422)"><g><path d="M 1.375 0 L 1.375 -9.453125 L 2.5625 -9.453125 L 2.5625 -1.140625 L 7.15625 -1.140625 L 7.15625 0 Z M 1.375 0 "/></g></g></g><g fill="#5ce1e6" fill-opacity="0.502"><g transform="translate(239.434135, 195.511422)"><g><path d="M 5.671875 0.171875 C 4.710938 0.171875 3.863281 -0.0351562 3.125 -0.453125 C 2.394531 -0.867188 1.820312 -1.445312 1.40625 -2.1875 C 0.988281 -2.925781 0.78125 -3.769531 0.78125 -4.71875 C 0.78125 -5.6875 0.988281 -6.535156 1.40625 -7.265625 C 1.820312 -8.003906 2.394531 -8.582031 3.125 -9 C 3.863281 -9.414062 4.710938 -9.625 5.671875 -9.625 C 6.628906 -9.625 7.472656 -9.414062 8.203125 -9 C 8.941406 -8.582031 9.519531 -8.003906 9.9375 -7.265625 C 10.363281 -6.535156 10.578125 -5.6875 10.578125 -4.71875 C 10.578125 -3.769531 10.363281 -2.925781 9.9375 -2.1875 C 9.519531 -1.445312 8.941406 -0.867188 8.203125 -0.453125 C 7.472656 -0.0351562 6.628906 0.171875 5.671875 0.171875 Z M 2 -4.71875 C 2 -3.988281 2.148438 -3.34375 2.453125 -2.78125 C 2.765625 -2.226562 3.195312 -1.796875 3.75 -1.484375 C 4.3125 -1.171875 4.953125 -1.015625 5.671875 -1.015625 C 6.398438 -1.015625 7.035156 -1.171875 7.578125 -1.484375 C 8.128906 -1.796875 8.5625 -2.226562 8.875 -2.78125 C 9.1875 -3.34375 9.34375 -3.988281 9.34375 -4.71875 C 9.34375 -5.457031 9.1875 -6.101562 8.875 -6.65625 C 8.5625 -7.21875 8.128906 -7.65625 7.578125 -7.96875 C 7.035156 -8.28125 6.398438 -8.4375 5.671875 -8.4375 C 4.953125 -8.4375 4.3125 -8.28125 3.75 -7.96875 C 3.195312 -7.65625 2.765625 -7.21875 2.453125 -6.65625 C 2.148438 -6.101562 2 -5.457031 2 -4.71875 Z M 2 -4.71875 "/></g></g></g><g fill="#5ce1e6" fill-opacity="0.502"><g transform="translate(250.774062, 195.511422)"><g><path d="M 5.59375 0.171875 C 4.894531 0.171875 4.253906 0.0507812 3.671875 -0.1875 C 3.085938 -0.425781 2.578125 -0.765625 2.140625 -1.203125 C 1.710938 -1.640625 1.378906 -2.15625 1.140625 -2.75 C 0.898438 -3.351562 0.78125 -4.007812 0.78125 -4.71875 C 0.78125 -5.4375 0.894531 -6.09375 1.125 -6.6875 C 1.363281 -7.28125 1.695312 -7.796875 2.125 -8.234375 C 2.5625 -8.671875 3.066406 -9.007812 3.640625 -9.25 C 4.222656 -9.5 4.863281 -9.625 5.5625 -9.625 C 6.28125 -9.625 6.945312 -9.492188 7.5625 -9.234375 C 8.175781 -8.972656 8.703125 -8.609375 9.140625 -8.140625 C 9.585938 -7.671875 9.910156 -7.125 10.109375 -6.5 L 8.8125 -6.5 C 8.519531 -7.113281 8.09375 -7.585938 7.53125 -7.921875 C 6.976562 -8.265625 6.335938 -8.4375 5.609375 -8.4375 C 4.898438 -8.4375 4.273438 -8.28125 3.734375 -7.96875 C 3.191406 -7.65625 2.765625 -7.21875 2.453125 -6.65625 C 2.148438 -6.09375 2 -5.445312 2 -4.71875 C 2 -3.988281 2.148438 -3.34375 2.453125 -2.78125 C 2.765625 -2.226562 3.191406 -1.796875 3.734375 -1.484375 C 4.285156 -1.171875 4.910156 -1.015625 5.609375 -1.015625 C 6.253906 -1.015625 6.820312 -1.140625 7.3125 -1.390625 C 7.8125 -1.640625 8.210938 -1.988281 8.515625 -2.4375 C 8.828125 -2.882812 9.023438 -3.40625 9.109375 -4 L 5.265625 -4 L 5.265625 -5.125 L 10.390625 -5.125 C 10.410156 -4.09375 10.21875 -3.175781 9.8125 -2.375 C 9.414062 -1.582031 8.851562 -0.957031 8.125 -0.5 C 7.40625 -0.0507812 6.5625 0.171875 5.59375 0.171875 Z M 5.59375 0.171875 "/></g></g></g><g fill="#5ce1e6" fill-opacity="0.502"><g transform="translate(261.911498, 195.511422)"><g><path d="M 3.78125 0 L 3.78125 -3.40625 L 0.234375 -9.453125 L 1.609375 -9.453125 L 3.140625 -6.796875 L 4.375 -4.671875 L 7.15625 -9.453125 L 8.484375 -9.453125 L 4.9375 -3.40625 L 4.9375 0 Z M 3.78125 0 "/></g></g></g><g fill="#000000" fill-opacity="1"><g transform="translate(140.534689, 195.620274)"><g><path d="M 1.375 0 L 1.375 -9.453125 L 6.796875 -9.453125 L 6.796875 -8.34375 L 2.5625 -8.34375 L 2.5625 -5.078125 L 6.4375 -5.078125 L 6.4375 -3.984375 L 2.5625 -3.984375 L 2.5625 0 Z M 1.375 0 "/></g></g></g><g fill="#000000" fill-opacity="1"><g transform="translate(148.067636, 195.620274)"><g><path d="M 5.671875 0.171875 C 4.710938 0.171875 3.863281 -0.0351562 3.125 -0.453125 C 2.394531 -0.867188 1.820312 -1.445312 1.40625 -2.1875 C 0.988281 -2.925781 0.78125 -3.769531 0.78125 -4.71875 C 0.78125 -5.6875 0.988281 -6.535156 1.40625 -7.265625 C 1.820312 -8.003906 2.394531 -8.582031 3.125 -9 C 3.863281 -9.414062 4.710938 -9.625 5.671875 -9.625 C 6.628906 -9.625 7.472656 -9.414062 8.203125 -9 C 8.941406 -8.582031 9.519531 -8.003906 9.9375 -7.265625 C 10.363281 -6.535156 10.578125 -5.6875 10.578125 -4.71875 C 10.578125 -3.769531 10.363281 -2.925781 9.9375 -2.1875 C 9.519531 -1.445312 8.941406 -0.867188 8.203125 -0.453125 C 7.472656 -0.0351562 6.628906 0.171875 5.671875 0.171875 Z M 2 -4.71875 C 2 -3.988281 2.148438 -3.34375 2.453125 -2.78125 C 2.765625 -2.226562 3.195312 -1.796875 3.75 -1.484375 C 4.3125 -1.171875 4.953125 -1.015625 5.671875 -1.015625 C 6.398438 -1.015625 7.035156 -1.171875 7.578125 -1.484375 C 8.128906 -1.796875 8.5625 -2.226562 8.875 -2.78125 C 9.1875 -3.34375 9.34375 -3.988281 9.34375 -4.71875 C 9.34375 -5.457031 9.1875 -6.101562 8.875 -6.65625 C 8.5625 -7.21875 8.128906 -7.65625 7.578125 -7.96875 C 7.035156 -8.28125 6.398438 -8.4375 5.671875 -8.4375 C 4.953125 -8.4375 4.3125 -8.28125 3.75 -7.96875 C 3.195312 -7.65625 2.765625 -7.21875 2.453125 -6.65625 C 2.148438 -6.101562 2 -5.457031 2 -4.71875 Z M 2 -4.71875 "/></g></g></g><g fill="#000000" fill-opacity="1"><g transform="translate(159.407563, 195.620274)"><g><path d="M 1.375 0 L 1.375 -9.453125 L 4.984375 -9.453125 C 5.640625 -9.453125 6.207031 -9.328125 6.6875 -9.078125 C 7.175781 -8.828125 7.554688 -8.476562 7.828125 -8.03125 C 8.097656 -7.582031 8.234375 -7.039062 8.234375 -6.40625 C 8.234375 -5.644531 8.035156 -5.015625 7.640625 -4.515625 C 7.242188 -4.015625 6.695312 -3.679688 6 -3.515625 L 8.390625 0 L 6.953125 0 L 4.640625 -3.390625 L 2.5625 -3.390625 L 2.5625 0 Z M 2.5625 -4.515625 L 4.84375 -4.515625 C 5.539062 -4.515625 6.078125 -4.679688 6.453125 -5.015625 C 6.828125 -5.347656 7.015625 -5.8125 7.015625 -6.40625 C 7.015625 -7.007812 6.828125 -7.476562 6.453125 -7.8125 C 6.078125 -8.144531 5.539062 -8.3125 4.84375 -8.3125 L 2.5625 -8.3125 Z M 2.5625 -4.515625 "/></g></g></g><g fill="#000000" fill-opacity="1"><g transform="translate(168.601001, 195.620274)"><g/></g></g><g fill="#000000" fill-opacity="1"><g transform="translate(171.948982, 195.620274)"><g><path d="M 3.65625 0 L 3.65625 -8.3125 L 0.453125 -8.3125 L 0.453125 -9.453125 L 8.03125 -9.453125 L 8.03125 -8.3125 L 4.84375 -8.3125 L 4.84375 0 Z M 3.65625 0 "/></g></g></g><g fill="#000000" fill-opacity="1"><g transform="translate(180.453933, 195.620274)"><g><path d="M 1.375 0 L 1.375 -9.453125 L 7.109375 -9.453125 L 7.109375 -8.34375 L 2.5625 -8.34375 L 2.5625 -5.359375 L 6.78125 -5.359375 L 6.78125 -4.265625 L 2.5625 -4.265625 L 2.5625 -1.109375 L 7.265625 -1.109375 L 7.265625 0 Z M 1.375 0 "/></g></g></g><g fill="#000000" fill-opacity="1"><g transform="translate(188.594378, 195.620274)"><g><path d="M 5.5625 0.171875 C 4.863281 0.171875 4.222656 0.0507812 3.640625 -0.1875 C 3.054688 -0.425781 2.550781 -0.765625 2.125 -1.203125 C 1.695312 -1.640625 1.363281 -2.15625 1.125 -2.75 C 0.894531 -3.351562 0.78125 -4.007812 0.78125 -4.71875 C 0.78125 -5.4375 0.894531 -6.09375 1.125 -6.6875 C 1.363281 -7.289062 1.695312 -7.804688 2.125 -8.234375 C 2.550781 -8.671875 3.054688 -9.007812 3.640625 -9.25 C 4.222656 -9.5 4.863281 -9.625 5.5625 -9.625 C 6.3125 -9.625 7 -9.484375 7.625 -9.203125 C 8.25 -8.929688 8.78125 -8.539062 9.21875 -8.03125 C 9.664062 -7.53125 9.992188 -6.929688 10.203125 -6.234375 L 8.9375 -6.234375 C 8.695312 -6.921875 8.273438 -7.457031 7.671875 -7.84375 C 7.078125 -8.238281 6.390625 -8.4375 5.609375 -8.4375 C 4.898438 -8.4375 4.273438 -8.28125 3.734375 -7.96875 C 3.191406 -7.65625 2.765625 -7.21875 2.453125 -6.65625 C 2.148438 -6.09375 2 -5.445312 2 -4.71875 C 2 -3.988281 2.148438 -3.34375 2.453125 -2.78125 C 2.765625 -2.226562 3.191406 -1.796875 3.734375 -1.484375 C 4.273438 -1.171875 4.898438 -1.015625 5.609375 -1.015625 C 6.398438 -1.015625 7.109375 -1.21875 7.734375 -1.625 C 8.359375 -2.039062 8.789062 -2.609375 9.03125 -3.328125 L 10.28125 -3.328125 C 10.09375 -2.617188 9.769531 -2.003906 9.3125 -1.484375 C 8.863281 -0.960938 8.316406 -0.554688 7.671875 -0.265625 C 7.023438 0.0234375 6.320312 0.171875 5.5625 0.171875 Z M 5.5625 0.171875 "/></g></g></g><g fill="#000000" fill-opacity="1"><g transform="translate(199.610311, 195.620274)"><g><path d="M 7.578125 0 L 7.578125 -4.25 L 2.5625 -4.25 L 2.5625 0 L 1.375 0 L 1.375 -9.453125 L 2.5625 -9.453125 L 2.5625 -5.390625 L 7.578125 -5.390625 L 7.578125 -9.453125 L 8.765625 -9.453125 L 8.765625 0 Z M 7.578125 0 "/></g></g></g><g fill="#000000" fill-opacity="1"><g transform="translate(209.748746, 195.620274)"><g><path d="M 1.375 0 L 1.375 -9.453125 L 2.5 -9.453125 L 7.71875 -2.046875 L 7.71875 -9.453125 L 8.890625 -9.453125 L 8.890625 0 L 7.78125 0 L 2.546875 -7.390625 L 2.546875 0 Z M 1.375 0 "/></g></g></g><g fill="#000000" fill-opacity="1"><g transform="translate(220.008682, 195.620274)"><g><path d="M 5.671875 0.171875 C 4.710938 0.171875 3.863281 -0.0351562 3.125 -0.453125 C 2.394531 -0.867188 1.820312 -1.445312 1.40625 -2.1875 C 0.988281 -2.925781 0.78125 -3.769531 0.78125 -4.71875 C 0.78125 -5.6875 0.988281 -6.535156 1.40625 -7.265625 C 1.820312 -8.003906 2.394531 -8.582031 3.125 -9 C 3.863281 -9.414062 4.710938 -9.625 5.671875 -9.625 C 6.628906 -9.625 7.472656 -9.414062 8.203125 -9 C 8.941406 -8.582031 9.519531 -8.003906 9.9375 -7.265625 C 10.363281 -6.535156 10.578125 -5.6875 10.578125 -4.71875 C 10.578125 -3.769531 10.363281 -2.925781 9.9375 -2.1875 C 9.519531 -1.445312 8.941406 -0.867188 8.203125 -0.453125 C 7.472656 -0.0351562 6.628906 0.171875 5.671875 0.171875 Z M 2 -4.71875 C 2 -3.988281 2.148438 -3.34375 2.453125 -2.78125 C 2.765625 -2.226562 3.195312 -1.796875 3.75 -1.484375 C 4.3125 -1.171875 4.953125 -1.015625 5.671875 -1.015625 C 6.398438 -1.015625 7.035156 -1.171875 7.578125 -1.484375 C 8.128906 -1.796875 8.5625 -2.226562 8.875 -2.78125 C 9.1875 -3.34375 9.34375 -3.988281 9.34375 -4.71875 C 9.34375 -5.457031 9.1875 -6.101562 8.875 -6.65625 C 8.5625 -7.21875 8.128906 -7.65625 7.578125 -7.96875 C 7.035156 -8.28125 6.398438 -8.4375 5.671875 -8.4375 C 4.953125 -8.4375 4.3125 -8.28125 3.75 -7.96875 C 3.195312 -7.65625 2.765625 -7.21875 2.453125 -6.65625 C 2.148438 -6.101562 2 -5.457031 2 -4.71875 Z M 2 -4.71875 "/></g></g></g><g fill="#000000" fill-opacity="1"><g transform="translate(231.348609, 195.620274)"><g><path d="M 1.375 0 L 1.375 -9.453125 L 2.5625 -9.453125 L 2.5625 -1.140625 L 7.15625 -1.140625 L 7.15625 0 Z M 1.375 0 "/></g></g></g><g fill="#000000" fill-opacity="1"><g transform="translate(238.922057, 195.620274)"><g><path d="M 5.671875 0.171875 C 4.710938 0.171875 3.863281 -0.0351562 3.125 -0.453125 C 2.394531 -0.867188 1.820312 -1.445312 1.40625 -2.1875 C 0.988281 -2.925781 0.78125 -3.769531 0.78125 -4.71875 C 0.78125 -5.6875 0.988281 -6.535156 1.40625 -7.265625 C 1.820312 -8.003906 2.394531 -8.582031 3.125 -9 C 3.863281 -9.414062 4.710938 -9.625 5.671875 -9.625 C 6.628906 -9.625 7.472656 -9.414062 8.203125 -9 C 8.941406 -8.582031 9.519531 -8.003906 9.9375 -7.265625 C 10.363281 -6.535156 10.578125 -5.6875 10.578125 -4.71875 C 10.578125 -3.769531 10.363281 -2.925781 9.9375 -2.1875 C 9.519531 -1.445312 8.941406 -0.867188 8.203125 -0.453125 C 7.472656 -0.0351562 6.628906 0.171875 5.671875 0.171875 Z M 2 -4.71875 C 2 -3.988281 2.148438 -3.34375 2.453125 -2.78125 C 2.765625 -2.226562 3.195312 -1.796875 3.75 -1.484375 C 4.3125 -1.171875 4.953125 -1.015625 5.671875 -1.015625 C 6.398438 -1.015625 7.035156 -1.171875 7.578125 -1.484375 C 8.128906 -1.796875 8.5625 -2.226562 8.875 -2.78125 C 9.1875 -3.34375 9.34375 -3.988281 9.34375 -4.71875 C 9.34375 -5.457031 9.1875 -6.101562 8.875 -6.65625 C 8.5625 -7.21875 8.128906 -7.65625 7.578125 -7.96875 C 7.035156 -8.28125 6.398438 -8.4375 5.671875 -8.4375 C 4.953125 -8.4375 4.3125 -8.28125 3.75 -7.96875 C 3.195312 -7.65625 2.765625 -7.21875 2.453125 -6.65625 C 2.148438 -6.101562 2 -5.457031 2 -4.71875 Z M 2 -4.71875 "/></g></g></g><g fill="#000000" fill-opacity="1"><g transform="translate(250.261984, 195.620274)"><g><path d="M 5.59375 0.171875 C 4.894531 0.171875 4.253906 0.0507812 3.671875 -0.1875 C 3.085938 -0.425781 2.578125 -0.765625 2.140625 -1.203125 C 1.710938 -1.640625 1.378906 -2.15625 1.140625 -2.75 C 0.898438 -3.351562 0.78125 -4.007812 0.78125 -4.71875 C 0.78125 -5.4375 0.894531 -6.09375 1.125 -6.6875 C 1.363281 -7.28125 1.695312 -7.796875 2.125 -8.234375 C 2.5625 -8.671875 3.066406 -9.007812 3.640625 -9.25 C 4.222656 -9.5 4.863281 -9.625 5.5625 -9.625 C 6.28125 -9.625 6.945312 -9.492188 7.5625 -9.234375 C 8.175781 -8.972656 8.703125 -8.609375 9.140625 -8.140625 C 9.585938 -7.671875 9.910156 -7.125 10.109375 -6.5 L 8.8125 -6.5 C 8.519531 -7.113281 8.09375 -7.585938 7.53125 -7.921875 C 6.976562 -8.265625 6.335938 -8.4375 5.609375 -8.4375 C 4.898438 -8.4375 4.273438 -8.28125 3.734375 -7.96875 C 3.191406 -7.65625 2.765625 -7.21875 2.453125 -6.65625 C 2.148438 -6.09375 2 -5.445312 2 -4.71875 C 2 -3.988281 2.148438 -3.34375 2.453125 -2.78125 C 2.765625 -2.226562 3.191406 -1.796875 3.734375 -1.484375 C 4.285156 -1.171875 4.910156 -1.015625 5.609375 -1.015625 C 6.253906 -1.015625 6.820312 -1.140625 7.3125 -1.390625 C 7.8125 -1.640625 8.210938 -1.988281 8.515625 -2.4375 C 8.828125 -2.882812 9.023438 -3.40625 9.109375 -4 L 5.265625 -4 L 5.265625 -5.125 L 10.390625 -5.125 C 10.410156 -4.09375 10.21875 -3.175781 9.8125 -2.375 C 9.414062 -1.582031 8.851562 -0.957031 8.125 -0.5 C 7.40625 -0.0507812 6.5625 0.171875 5.59375 0.171875 Z M 5.59375 0.171875 "/></g></g></g><g fill="#000000" fill-opacity="1"><g transform="translate(261.399419, 195.620274)"><g><path d="M 3.78125 0 L 3.78125 -3.40625 L 0.234375 -9.453125 L 1.609375 -9.453125 L 3.140625 -6.796875 L 4.375 -4.671875 L 7.15625 -9.453125 L 8.484375 -9.453125 L 4.9375 -3.40625 L 4.9375 0 Z M 3.78125 0 "/></g></g></g></svg>