<svg xmlns="http://www.w3.org/2000/svg" xmlns:xlink="http://www.w3.org/1999/xlink" width="500" zoomAndPan="magnify" viewBox="0 0 375 374.999991" height="500" preserveAspectRatio="xMidYMid meet" version="1.0"><defs><clipPath id="678333a42c"><path d="M 111.695312 111.695312 L 263.195312 111.695312 L 263.195312 263.195312 L 111.695312 263.195312 Z M 111.695312 111.695312 " clip-rule="nonzero"/></clipPath></defs><g clip-path="url(#678333a42c)"><path fill="#00b779" d="M 187.496094 111.699219 C 201.449219 212.765625 212.761719 201.453125 111.691406 187.5 C 212.761719 173.542969 201.449219 162.230469 187.496094 263.300781 C 173.539062 162.230469 162.226562 173.542969 263.296875 187.5 C 162.226562 201.453125 173.539062 212.765625 187.496094 111.699219 Z M 187.496094 207.992188 C 191.265625 180.667969 194.324219 183.726562 167.003906 187.5 C 194.324219 191.269531 191.265625 194.328125 187.496094 167.007812 C 183.722656 194.328125 180.664062 191.269531 207.984375 187.5 C 180.664062 183.726562 183.722656 180.667969 187.496094 207.992188 Z M 187.496094 207.992188 " fill-opacity="1" fill-rule="nonzero"/></g></svg>