<svg xmlns="http://www.w3.org/2000/svg" xmlns:xlink="http://www.w3.org/1999/xlink" width="6912" zoomAndPan="magnify" viewBox="0 0 5184 2592.000001" height="3456" preserveAspectRatio="xMidYMid meet" version="1.0"><defs><g/><clipPath id="d476774c52"><path d="M 1 693.75 L 1204.285156 693.75 L 1204.285156 1897.035156 L 1 1897.035156 Z M 1 693.75 " clip-rule="nonzero"/></clipPath><clipPath id="f0b701d932"><path d="M 1567.105469 1414 L 3906 1414 L 3906 1435 L 1567.105469 1435 Z M 1567.105469 1414 " clip-rule="nonzero"/></clipPath></defs><g clip-path="url(#d476774c52)"><path fill="#00b779" d="M 602.71875 693.765625 C 713.496094 1496.085938 803.296875 1406.285156 0.976562 1295.503906 C 803.296875 1184.726562 713.496094 1094.925781 602.71875 1897.246094 C 491.9375 1094.925781 402.136719 1184.726562 1204.457031 1295.503906 C 402.136719 1406.285156 491.9375 1496.085938 602.71875 693.765625 Z M 602.71875 1458.175781 C 632.664062 1241.28125 656.941406 1265.558594 440.046875 1295.503906 C 656.941406 1325.453125 632.664062 1349.730469 602.71875 1132.835938 C 572.769531 1349.730469 548.492188 1325.453125 765.386719 1295.503906 C 548.492188 1265.558594 572.769531 1241.28125 602.71875 1458.175781 Z M 602.71875 1458.175781 " fill-opacity="1" fill-rule="nonzero"/></g><g clip-path="url(#f0b701d932)"><path fill="#faebd7" d="M 3892.273438 1434.0625 C 3877.878906 1432.6875 3862.5625 1436.339844 3848.675781 1432.21875 L 3839.238281 1431.347656 L 3832.667969 1431.144531 L 3814.769531 1430.949219 C 3794.859375 1434.261719 3775.035156 1434.355469 3755.320312 1429.925781 C 3731.402344 1432.640625 3706.960938 1431.988281 3682.285156 1431.457031 C 3641.066406 1430.550781 3599.804688 1430.304688 3558.558594 1429.9375 C 3479.507812 1428.378906 3400.464844 1429.148438 3321.304688 1426.996094 C 3289.550781 1426.214844 3256.484375 1426.96875 3224.070312 1427.566406 C 3206.816406 1429.773438 3189.199219 1428.265625 3171.773438 1428.0625 C 3106.71875 1427.125 3041.699219 1426.1875 2976.703125 1425.25 C 2927.375 1424.773438 2877.832031 1424.632812 2828.382812 1424.796875 C 2795.761719 1424.875 2763.089844 1424.164062 2730.535156 1423.335938 C 2688.691406 1422.34375 2647.960938 1426.417969 2606.707031 1427.921875 C 2554.988281 1429.863281 2504.53125 1426.792969 2453.578125 1425.40625 C 2441.519531 1426.320312 2429.519531 1426.085938 2417.523438 1425.53125 C 2408.824219 1426.097656 2400.246094 1426.390625 2392.859375 1424.027344 C 2379.578125 1419.734375 2365.414062 1427.265625 2352.0625 1423.964844 L 2345.988281 1424.121094 C 2340 1425.886719 2334.058594 1425.511719 2328.132812 1424.25 C 2291.460938 1424.332031 2254.621094 1426.894531 2218.175781 1424.21875 C 2218.167969 1424.21875 2218.160156 1424.21875 2218.15625 1424.21875 L 2077.367188 1426.15625 L 2041.46875 1426.507812 C 2036.5625 1426.964844 2031.6875 1427.371094 2028.234375 1425.421875 C 2004.703125 1427.816406 1981.324219 1427.484375 1957.988281 1426.046875 C 1941.757812 1431.226562 1925.996094 1426.96875 1910.046875 1426.503906 C 1910.046875 1426.503906 1910.039062 1426.503906 1910.039062 1426.503906 L 1910.046875 1426.503906 L 1880.648438 1428.046875 C 1866.585938 1429.226562 1852.648438 1428.457031 1838.671875 1428.417969 L 1832.632812 1428.273438 L 1796.777344 1429.851562 C 1782.835938 1430.371094 1768.886719 1431.796875 1754.953125 1430.664062 C 1740.875 1430.464844 1725.265625 1436.523438 1712.78125 1429.847656 L 1695.144531 1429.441406 L 1696.113281 1429.039062 C 1695.738281 1429.152344 1695.402344 1429.28125 1695.144531 1429.441406 C 1688.84375 1430.691406 1682.902344 1433.269531 1675.589844 1430.699219 C 1675.589844 1430.699219 1675.582031 1430.699219 1675.582031 1430.699219 L 1658.5625 1429.902344 C 1658.5625 1429.902344 1658.5625 1429.902344 1658.5625 1429.894531 C 1658.5625 1429.894531 1658.554688 1429.894531 1658.554688 1429.894531 L 1628.949219 1430.699219 C 1620.660156 1431.640625 1613.15625 1431.035156 1606.207031 1429.351562 L 1594.03125 1430.089844 C 1589.804688 1431.964844 1585.570312 1432.078125 1581.335938 1430.371094 C 1578.511719 1430.386719 1575.746094 1430.460938 1572.992188 1430.570312 L 1572.792969 1430.40625 C 1572.039062 1429.8125 1571.230469 1429.277344 1570.242188 1428.742188 C 1569.285156 1428.238281 1568.242188 1427.695312 1567.230469 1427.167969 C 1569.90625 1427.058594 1572.570312 1426.695312 1575.21875 1426.007812 C 1587.492188 1425.035156 1599.738281 1425.066406 1611.976562 1425.378906 C 1619.609375 1423.863281 1627.269531 1424.90625 1634.917969 1424.832031 C 1647.554688 1423.671875 1660.242188 1422.117188 1672.398438 1424.753906 L 1707.160156 1424.429688 C 1708.890625 1423.769531 1710.726562 1423.675781 1712.671875 1424.144531 C 1712.671875 1424.144531 1712.671875 1424.144531 1712.675781 1424.144531 C 1718.335938 1423.121094 1725.167969 1422.332031 1727.941406 1424.808594 C 1730.1875 1426.804688 1723.703125 1426.722656 1720.25 1427.089844 L 1720.246094 1427.089844 C 1731.964844 1428.503906 1743.742188 1430.824219 1752.289062 1424.113281 C 1753.429688 1423.21875 1761.5 1423.625 1766.359375 1423.433594 C 1777.015625 1422.796875 1787.714844 1422.019531 1797.316406 1424.5 C 1803.828125 1423.101562 1810.800781 1422.035156 1816.570312 1424.28125 C 1821.804688 1426.320312 1826.796875 1425.785156 1832.417969 1424.691406 L 1844.976562 1424 C 1845.914062 1423.390625 1847.1875 1423.199219 1848.804688 1423.441406 C 1867.3125 1422.257812 1885.773438 1422.53125 1904.222656 1422.796875 C 1920.097656 1422.371094 1935.933594 1420.515625 1951.847656 1421.777344 C 1977.894531 1421.207031 2004.113281 1419.492188 2029.667969 1422.316406 C 2031.261719 1421.910156 2032.957031 1421.78125 2034.761719 1421.929688 C 2041.191406 1419.742188 2047.691406 1419.75 2054.238281 1421.542969 L 2065.054688 1421.882812 C 2064.628906 1422.113281 2064.101562 1422.269531 2063.613281 1422.453125 C 2064.136719 1422.296875 2064.632812 1422.117188 2065.054688 1421.882812 L 2077.660156 1421.777344 C 2090.097656 1419.648438 2103.203125 1420.34375 2115.863281 1420.164062 C 2178.617188 1419.261719 2241.410156 1416.207031 2304.144531 1417.875 L 2406.003906 1416.503906 C 2410.949219 1416.441406 2415.703125 1416.683594 2419.304688 1418.210938 C 2419.304688 1418.210938 2419.300781 1418.210938 2419.300781 1418.214844 C 2419.304688 1418.214844 2419.308594 1418.214844 2419.320312 1418.214844 C 2420.449219 1417.886719 2421.339844 1417.96875 2421.980469 1418.449219 C 2421.980469 1418.449219 2421.980469 1418.449219 2421.988281 1418.449219 C 2430.675781 1416.136719 2439.375 1416.097656 2448.089844 1418.15625 C 2456.25 1416.789062 2464.394531 1414.941406 2472.699219 1417.828125 C 2506.792969 1417.128906 2540.8125 1415.410156 2574.992188 1415.820312 C 2580.773438 1415.890625 2586.789062 1415.292969 2591.769531 1416.96875 C 2630.152344 1413.855469 2668.898438 1415.160156 2707.460938 1415.035156 C 2765.835938 1414.847656 2824.195312 1415.566406 2882.566406 1415.695312 L 3046.035156 1416.332031 L 3173.683594 1417.390625 L 3301.324219 1418.898438 L 3446.152344 1421.214844 L 3569.925781 1422.894531 C 3569.929688 1422.894531 3569.929688 1422.894531 3569.933594 1422.894531 C 3569.933594 1422.894531 3569.929688 1422.894531 3569.929688 1422.894531 L 3749.175781 1425.660156 C 3798.804688 1424.941406 3848.339844 1428.234375 3897.960938 1428.226562 C 3900.5 1428.226562 3903.117188 1429.28125 3905.699219 1429.847656 C 3907.722656 1434.492188 3897.613281 1433.089844 3892.273438 1434.0625 Z M 3892.273438 1434.0625 " fill-opacity="1" fill-rule="nonzero"/></g><g fill="#000000" fill-opacity="1"><g transform="translate(1218.501359, 1206.966019)"><g><path d="M 170.03125 -43.15625 C 176.425781 -43.15625 181.773438 -41.125 186.078125 -37.0625 C 190.378906 -33.007812 192.53125 -27.785156 192.53125 -21.390625 C 192.53125 -15.242188 190.378906 -10.140625 186.078125 -6.078125 C 181.773438 -2.023438 176.425781 0 170.03125 0 L 50.15625 0 C 43.769531 0 38.421875 -2.148438 34.109375 -6.453125 C 29.804688 -10.753906 27.65625 -16.101562 27.65625 -22.5 L 27.65625 -235.6875 C 27.65625 -242.082031 29.867188 -247.429688 34.296875 -251.734375 C 38.722656 -256.035156 44.378906 -258.1875 51.265625 -258.1875 C 57.171875 -258.1875 62.394531 -256.035156 66.9375 -251.734375 C 71.488281 -247.429688 73.765625 -242.082031 73.765625 -235.6875 L 73.765625 -36.890625 L 65.65625 -43.15625 Z M 170.03125 -43.15625 "/></g></g></g><g fill="#000000" fill-opacity="1"><g transform="translate(1425.689951, 1206.966019)"><g><path d="M 50.15625 -258.1875 L 173.71875 -258.1875 C 180.113281 -258.1875 185.460938 -256.15625 189.765625 -252.09375 C 194.066406 -248.039062 196.21875 -242.816406 196.21875 -236.421875 C 196.21875 -230.273438 194.066406 -225.296875 189.765625 -221.484375 C 185.460938 -217.679688 180.113281 -215.78125 173.71875 -215.78125 L 70.453125 -215.78125 L 73.765625 -222.046875 L 73.765625 -150.125 L 70.8125 -153.0625 L 157.125 -153.0625 C 163.519531 -153.0625 168.867188 -151.03125 173.171875 -146.96875 C 177.472656 -142.914062 179.625 -137.695312 179.625 -131.3125 C 179.625 -125.164062 177.472656 -120.1875 173.171875 -116.375 C 168.867188 -112.5625 163.519531 -110.65625 157.125 -110.65625 L 71.921875 -110.65625 L 73.765625 -113.609375 L 73.765625 -39.09375 L 70.8125 -42.421875 L 173.71875 -42.421875 C 180.113281 -42.421875 185.460938 -40.265625 189.765625 -35.953125 C 194.066406 -31.648438 196.21875 -26.675781 196.21875 -21.03125 C 196.21875 -14.875 194.066406 -9.828125 189.765625 -5.890625 C 185.460938 -1.960938 180.113281 0 173.71875 0 L 50.15625 0 C 43.769531 0 38.421875 -2.148438 34.109375 -6.453125 C 29.804688 -10.753906 27.65625 -16.101562 27.65625 -22.5 L 27.65625 -235.6875 C 27.65625 -242.082031 29.804688 -247.429688 34.109375 -251.734375 C 38.421875 -256.035156 43.769531 -258.1875 50.15625 -258.1875 Z M 50.15625 -258.1875 "/></g></g></g><g fill="#000000" fill-opacity="1"><g transform="translate(1636.565362, 1206.966019)"><g><path d="M 208.390625 -245.65625 C 214.785156 -242.457031 218.535156 -237.414062 219.640625 -230.53125 C 220.753906 -223.644531 218.972656 -217.375 214.296875 -211.71875 C 211.097656 -207.289062 206.976562 -204.832031 201.9375 -204.34375 C 196.894531 -203.851562 191.796875 -204.835938 186.640625 -207.296875 C 180.734375 -209.992188 174.519531 -212.082031 168 -213.5625 C 161.488281 -215.039062 154.664062 -215.78125 147.53125 -215.78125 C 134.257812 -215.78125 122.394531 -213.6875 111.9375 -209.5 C 101.488281 -205.320312 92.578125 -199.359375 85.203125 -191.609375 C 77.828125 -183.867188 72.234375 -174.710938 68.421875 -164.140625 C 64.609375 -153.566406 62.703125 -141.882812 62.703125 -129.09375 C 62.703125 -114.09375 64.851562 -101.0625 69.15625 -90 C 73.457031 -78.9375 79.421875 -69.710938 87.046875 -62.328125 C 94.671875 -54.953125 103.644531 -49.484375 113.96875 -45.921875 C 124.300781 -42.359375 135.488281 -40.578125 147.53125 -40.578125 C 154.175781 -40.578125 160.816406 -41.191406 167.453125 -42.421875 C 174.085938 -43.648438 180.484375 -45.863281 186.640625 -49.0625 C 191.796875 -51.519531 196.894531 -52.378906 201.9375 -51.640625 C 206.976562 -50.898438 211.222656 -48.316406 214.671875 -43.890625 C 219.585938 -37.742188 221.367188 -31.410156 220.015625 -24.890625 C 218.660156 -18.378906 214.910156 -13.648438 208.765625 -10.703125 C 202.367188 -7.503906 195.789062 -4.859375 189.03125 -2.765625 C 182.269531 -0.671875 175.445312 0.925781 168.5625 2.03125 C 161.675781 3.132812 154.664062 3.6875 147.53125 3.6875 C 129.832031 3.6875 113.050781 0.859375 97.1875 -4.796875 C 81.332031 -10.453125 67.191406 -18.8125 54.765625 -29.875 C 42.347656 -40.9375 32.570312 -54.765625 25.4375 -71.359375 C 18.3125 -87.960938 14.75 -107.207031 14.75 -129.09375 C 14.75 -148.03125 18.003906 -165.488281 24.515625 -181.46875 C 31.035156 -197.457031 40.257812 -211.289062 52.1875 -222.96875 C 64.113281 -234.644531 78.191406 -243.738281 94.421875 -250.25 C 110.648438 -256.769531 128.351562 -260.03125 147.53125 -260.03125 C 158.351562 -260.03125 168.925781 -258.800781 179.25 -256.34375 C 189.582031 -253.882812 199.296875 -250.320312 208.390625 -245.65625 Z M 208.390625 -245.65625 "/></g></g></g><g fill="#000000" fill-opacity="1"><g transform="translate(1867.717022, 1206.966019)"><g><path d="M 170.03125 -43.15625 C 176.425781 -43.15625 181.773438 -41.125 186.078125 -37.0625 C 190.378906 -33.007812 192.53125 -27.785156 192.53125 -21.390625 C 192.53125 -15.242188 190.378906 -10.140625 186.078125 -6.078125 C 181.773438 -2.023438 176.425781 0 170.03125 0 L 50.15625 0 C 43.769531 0 38.421875 -2.148438 34.109375 -6.453125 C 29.804688 -10.753906 27.65625 -16.101562 27.65625 -22.5 L 27.65625 -235.6875 C 27.65625 -242.082031 29.867188 -247.429688 34.296875 -251.734375 C 38.722656 -256.035156 44.378906 -258.1875 51.265625 -258.1875 C 57.171875 -258.1875 62.394531 -256.035156 66.9375 -251.734375 C 71.488281 -247.429688 73.765625 -242.082031 73.765625 -235.6875 L 73.765625 -36.890625 L 65.65625 -43.15625 Z M 170.03125 -43.15625 "/></g></g></g><g fill="#000000" fill-opacity="1"><g transform="translate(2074.905615, 1206.966019)"><g><path d="M 122.453125 -200.28125 L 42.78125 -12.90625 C 41.0625 -8.238281 38.414062 -4.613281 34.84375 -2.03125 C 31.28125 0.550781 27.410156 1.84375 23.234375 1.84375 C 16.597656 1.84375 11.679688 0 8.484375 -3.6875 C 5.285156 -7.375 3.6875 -11.921875 3.6875 -17.328125 C 3.6875 -19.546875 4.054688 -21.882812 4.796875 -24.34375 L 96.640625 -244.90625 C 98.609375 -249.832031 101.617188 -253.644531 105.671875 -256.34375 C 109.734375 -259.050781 114.097656 -260.160156 118.765625 -259.671875 C 123.191406 -259.671875 127.3125 -258.378906 131.125 -255.796875 C 134.9375 -253.210938 137.703125 -249.582031 139.421875 -244.90625 L 230.15625 -28.765625 C 231.382812 -25.566406 232 -22.617188 232 -19.921875 C 232 -13.273438 229.847656 -7.984375 225.546875 -4.046875 C 221.242188 -0.117188 216.507812 1.84375 211.34375 1.84375 C 206.914062 1.84375 202.921875 0.492188 199.359375 -2.203125 C 195.796875 -4.910156 193.03125 -8.601562 191.0625 -13.28125 L 111.765625 -198.0625 Z M 54.21875 -57.90625 L 74.5 -100.328125 L 174.09375 -100.328125 L 181.109375 -57.90625 Z M 54.21875 -57.90625 "/></g></g></g><g fill="#000000" fill-opacity="1"><g transform="translate(2310.481359, 1206.966019)"><g><path d="M 73.765625 -22.5 C 73.765625 -16.101562 71.425781 -10.753906 66.75 -6.453125 C 62.082031 -2.148438 56.675781 0 50.53125 0 C 43.644531 0 38.109375 -2.148438 33.921875 -6.453125 C 29.742188 -10.753906 27.65625 -16.101562 27.65625 -22.5 L 27.65625 -235.6875 C 27.65625 -242.082031 29.867188 -247.429688 34.296875 -251.734375 C 38.722656 -256.035156 44.378906 -258.1875 51.265625 -258.1875 C 57.171875 -258.1875 62.394531 -256.035156 66.9375 -251.734375 C 71.488281 -247.429688 73.765625 -242.082031 73.765625 -235.6875 Z M 73.765625 -22.5 "/></g></g></g><g fill="#000000" fill-opacity="1"><g transform="translate(2411.863612, 1206.966019)"><g><path d="M 54.21875 0 C 47.332031 0 41.179688 -2.148438 35.765625 -6.453125 C 30.359375 -10.753906 27.65625 -16.101562 27.65625 -22.5 L 27.65625 -235.6875 C 27.65625 -242.082031 29.804688 -247.429688 34.109375 -251.734375 C 38.421875 -256.035156 43.769531 -258.1875 50.15625 -258.1875 L 156.390625 -258.1875 C 169.171875 -258.1875 181.15625 -254.804688 192.34375 -248.046875 C 203.539062 -241.285156 212.582031 -231.941406 219.46875 -220.015625 C 226.351562 -208.085938 229.796875 -194.378906 229.796875 -178.890625 C 229.796875 -169.546875 227.890625 -160.445312 224.078125 -151.59375 C 220.265625 -142.738281 215.097656 -134.742188 208.578125 -127.609375 C 202.066406 -120.484375 194.753906 -114.953125 186.640625 -111.015625 L 187 -119.5 C 193.882812 -115.8125 199.601562 -111.445312 204.15625 -106.40625 C 208.707031 -101.363281 212.269531 -95.953125 214.84375 -90.171875 C 217.425781 -84.398438 218.96875 -78.195312 219.46875 -71.5625 C 220.445312 -65.40625 221.117188 -59.988281 221.484375 -55.3125 C 221.859375 -50.644531 222.597656 -46.710938 223.703125 -43.515625 C 224.804688 -40.328125 226.957031 -37.867188 230.15625 -36.140625 C 235.5625 -32.953125 238.941406 -28.34375 240.296875 -22.3125 C 241.648438 -16.289062 240.238281 -10.941406 236.0625 -6.265625 C 233.351562 -3.066406 229.910156 -1.035156 225.734375 -0.171875 C 221.554688 0.679688 217.375 0.679688 213.1875 -0.171875 C 209.007812 -1.035156 205.566406 -2.207031 202.859375 -3.6875 C 198.679688 -6.144531 194.5 -9.769531 190.3125 -14.5625 C 186.132812 -19.363281 182.753906 -25.820312 180.171875 -33.9375 C 177.597656 -42.050781 176.3125 -52.5 176.3125 -65.28125 C 176.3125 -69.46875 175.570312 -73.34375 174.09375 -76.90625 C 172.613281 -80.46875 170.519531 -83.539062 167.8125 -86.125 C 165.113281 -88.707031 161.671875 -90.675781 157.484375 -92.03125 C 153.304688 -93.382812 148.394531 -94.0625 142.75 -94.0625 L 68.234375 -94.0625 L 73.765625 -102.53125 L 73.765625 -22.5 C 73.765625 -16.101562 72.039062 -10.753906 68.59375 -6.453125 C 65.15625 -2.148438 60.363281 0 54.21875 0 Z M 68.609375 -132.046875 L 154.546875 -132.046875 C 158.972656 -132.046875 163.273438 -134.070312 167.453125 -138.125 C 171.628906 -142.1875 175.070312 -147.71875 177.78125 -154.71875 C 180.488281 -161.726562 181.84375 -169.414062 181.84375 -177.78125 C 181.84375 -188.601562 178.953125 -197.640625 173.171875 -204.890625 C 167.390625 -212.148438 161.179688 -215.78125 154.546875 -215.78125 L 69.34375 -215.78125 L 73.765625 -227.578125 L 73.765625 -123.1875 Z M 68.609375 -132.046875 "/></g></g></g><g fill="#000000" fill-opacity="1"><g transform="translate(2665.135184, 1206.966019)"><g/></g></g><g fill="#000000" fill-opacity="1"><g transform="translate(2768.360849, 1206.966019)"><g><path d="M 50.90625 0 C 44.019531 0 38.421875 -2.148438 34.109375 -6.453125 C 29.804688 -10.753906 27.65625 -16.101562 27.65625 -22.5 L 27.65625 -235.6875 C 27.65625 -242.082031 29.804688 -247.429688 34.109375 -251.734375 C 38.421875 -256.035156 43.769531 -258.1875 50.15625 -258.1875 L 170.03125 -258.1875 C 176.425781 -258.1875 181.773438 -256.15625 186.078125 -252.09375 C 190.378906 -248.039062 192.53125 -242.816406 192.53125 -236.421875 C 192.53125 -231.015625 190.378906 -226.222656 186.078125 -222.046875 C 181.773438 -217.867188 176.425781 -215.78125 170.03125 -215.78125 L 70.453125 -215.78125 L 73.765625 -220.203125 L 73.765625 -146.0625 L 71.1875 -150.859375 L 153.4375 -150.859375 C 159.832031 -150.859375 165.179688 -148.828125 169.484375 -144.765625 C 173.785156 -140.710938 175.9375 -135.488281 175.9375 -129.09375 C 175.9375 -123.6875 173.785156 -118.890625 169.484375 -114.703125 C 165.179688 -110.523438 159.832031 -108.4375 153.4375 -108.4375 L 70.453125 -108.4375 L 73.765625 -111.765625 L 73.765625 -22.5 C 73.765625 -16.101562 71.488281 -10.753906 66.9375 -6.453125 C 62.394531 -2.148438 57.050781 0 50.90625 0 Z M 50.90625 0 "/></g></g></g><g fill="#000000" fill-opacity="1"><g transform="translate(2975.549441, 1206.966019)"><g><path d="M 265.203125 -129.09375 C 265.203125 -110.65625 262.125 -93.441406 255.96875 -77.453125 C 249.820312 -61.472656 241.15625 -47.394531 229.96875 -35.21875 C 218.78125 -23.050781 205.503906 -13.523438 190.140625 -6.640625 C 174.773438 0.242188 157.992188 3.6875 139.796875 3.6875 C 121.597656 3.6875 104.875 0.242188 89.625 -6.640625 C 74.382812 -13.523438 61.171875 -23.050781 49.984375 -35.21875 C 38.796875 -47.394531 30.125 -61.472656 23.96875 -77.453125 C 17.820312 -93.441406 14.75 -110.65625 14.75 -129.09375 C 14.75 -147.539062 17.820312 -164.753906 23.96875 -180.734375 C 30.125 -196.710938 38.796875 -210.785156 49.984375 -222.953125 C 61.171875 -235.128906 74.382812 -244.660156 89.625 -251.546875 C 104.875 -258.429688 121.597656 -261.875 139.796875 -261.875 C 157.992188 -261.875 174.773438 -258.429688 190.140625 -251.546875 C 205.503906 -244.660156 218.78125 -235.128906 229.96875 -222.953125 C 241.15625 -210.785156 249.820312 -196.710938 255.96875 -180.734375 C 262.125 -164.753906 265.203125 -147.539062 265.203125 -129.09375 Z M 217.25 -129.09375 C 217.25 -145.570312 213.925781 -160.507812 207.28125 -173.90625 C 200.644531 -187.3125 191.546875 -197.945312 179.984375 -205.8125 C 168.429688 -213.6875 155.035156 -217.625 139.796875 -217.625 C 124.546875 -217.625 111.140625 -213.6875 99.578125 -205.8125 C 88.023438 -197.945312 78.988281 -187.375 72.46875 -174.09375 C 65.957031 -160.8125 62.703125 -145.8125 62.703125 -129.09375 C 62.703125 -112.613281 65.957031 -97.671875 72.46875 -84.265625 C 78.988281 -70.867188 88.023438 -60.238281 99.578125 -52.375 C 111.140625 -44.507812 124.546875 -40.578125 139.796875 -40.578125 C 155.035156 -40.578125 168.429688 -44.507812 179.984375 -52.375 C 191.546875 -60.238281 200.644531 -70.867188 207.28125 -84.265625 C 213.925781 -97.671875 217.25 -112.613281 217.25 -129.09375 Z M 217.25 -129.09375 "/></g></g></g><g fill="#000000" fill-opacity="1"><g transform="translate(3255.364749, 1206.966019)"><g><path d="M 210.984375 -258.5625 C 217.367188 -258.5625 222.53125 -256.410156 226.46875 -252.109375 C 230.40625 -247.804688 232.375 -242.457031 232.375 -236.0625 L 232.375 -102.53125 C 232.375 -82.125 228.007812 -64.050781 219.28125 -48.3125 C 210.550781 -32.582031 198.5625 -20.289062 183.3125 -11.4375 C 168.070312 -2.582031 150.367188 1.84375 130.203125 1.84375 C 110.035156 1.84375 92.265625 -2.582031 76.890625 -11.4375 C 61.523438 -20.289062 49.476562 -32.582031 40.75 -48.3125 C 32.019531 -64.050781 27.65625 -82.125 27.65625 -102.53125 L 27.65625 -236.0625 C 27.65625 -242.457031 29.867188 -247.804688 34.296875 -252.109375 C 38.722656 -256.410156 44.378906 -258.5625 51.265625 -258.5625 C 56.921875 -258.5625 62.023438 -256.410156 66.578125 -252.109375 C 71.128906 -247.804688 73.40625 -242.457031 73.40625 -236.0625 L 73.40625 -102.53125 C 73.40625 -90.238281 76.046875 -79.601562 81.328125 -70.625 C 86.617188 -61.65625 93.628906 -54.710938 102.359375 -49.796875 C 111.085938 -44.878906 120.367188 -42.421875 130.203125 -42.421875 C 140.773438 -42.421875 150.609375 -44.878906 159.703125 -49.796875 C 168.804688 -54.710938 176.1875 -61.65625 181.84375 -70.625 C 187.5 -79.601562 190.328125 -90.238281 190.328125 -102.53125 L 190.328125 -236.0625 C 190.328125 -242.457031 192.171875 -247.804688 195.859375 -252.109375 C 199.546875 -256.410156 204.585938 -258.5625 210.984375 -258.5625 Z M 210.984375 -258.5625 "/></g></g></g><g fill="#000000" fill-opacity="1"><g transform="translate(3515.272194, 1206.966019)"><g><path d="M 223.515625 -258.1875 C 229.421875 -258.1875 234.21875 -256.21875 237.90625 -252.28125 C 241.59375 -248.351562 243.4375 -243.4375 243.4375 -237.53125 L 243.4375 -22.5 C 243.4375 -16.101562 241.285156 -10.753906 236.984375 -6.453125 C 232.679688 -2.148438 227.332031 0 220.9375 0 C 217.738281 0 214.476562 -0.550781 211.15625 -1.65625 C 207.84375 -2.757812 205.328125 -4.296875 203.609375 -6.265625 L 58.640625 -190.328125 L 68.234375 -196.21875 L 68.234375 -20.65625 C 68.234375 -14.75 66.328125 -9.828125 62.515625 -5.890625 C 58.703125 -1.960938 53.722656 0 47.578125 0 C 41.679688 0 36.882812 -1.960938 33.1875 -5.890625 C 29.5 -9.828125 27.65625 -14.75 27.65625 -20.65625 L 27.65625 -235.6875 C 27.65625 -242.082031 29.804688 -247.429688 34.109375 -251.734375 C 38.421875 -256.035156 43.769531 -258.1875 50.15625 -258.1875 C 53.601562 -258.1875 57.171875 -257.507812 60.859375 -256.15625 C 64.546875 -254.8125 67.25 -252.785156 68.96875 -250.078125 L 209.5 -70.8125 L 203.234375 -66.390625 L 203.234375 -237.53125 C 203.234375 -243.4375 205.078125 -248.351562 208.765625 -252.28125 C 212.453125 -256.21875 217.367188 -258.1875 223.515625 -258.1875 Z M 223.515625 -258.1875 "/></g></g></g><g fill="#000000" fill-opacity="1"><g transform="translate(3786.239594, 1206.966019)"><g><path d="M 138.3125 -258.1875 C 156.019531 -258.1875 171.757812 -254.863281 185.53125 -248.21875 C 199.300781 -241.582031 210.914062 -232.300781 220.375 -220.375 C 229.84375 -208.457031 236.972656 -194.691406 241.765625 -179.078125 C 246.566406 -163.460938 248.96875 -146.800781 248.96875 -129.09375 C 248.96875 -105.238281 244.664062 -83.535156 236.0625 -63.984375 C 227.457031 -44.441406 214.976562 -28.890625 198.625 -17.328125 C 182.269531 -5.773438 162.164062 0 138.3125 0 L 50.15625 0 C 43.769531 0 38.421875 -2.148438 34.109375 -6.453125 C 29.804688 -10.753906 27.65625 -16.101562 27.65625 -22.5 L 27.65625 -235.6875 C 27.65625 -242.082031 29.804688 -247.429688 34.109375 -251.734375 C 38.421875 -256.035156 43.769531 -258.1875 50.15625 -258.1875 Z M 134.625 -42.421875 C 150.113281 -42.421875 162.773438 -46.414062 172.609375 -54.40625 C 182.453125 -62.394531 189.644531 -72.96875 194.1875 -86.125 C 198.738281 -99.28125 201.015625 -113.601562 201.015625 -129.09375 C 201.015625 -140.65625 199.722656 -151.660156 197.140625 -162.109375 C 194.566406 -172.554688 190.570312 -181.773438 185.15625 -189.765625 C 179.75 -197.753906 172.863281 -204.085938 164.5 -208.765625 C 156.144531 -213.441406 146.1875 -215.78125 134.625 -215.78125 L 70.078125 -215.78125 L 73.765625 -219.09375 L 73.765625 -38.359375 L 71.5625 -42.421875 Z M 134.625 -42.421875 "/></g></g></g><g fill="#000000" fill-opacity="1"><g transform="translate(4049.833606, 1206.966019)"><g><path d="M 122.453125 -200.28125 L 42.78125 -12.90625 C 41.0625 -8.238281 38.414062 -4.613281 34.84375 -2.03125 C 31.28125 0.550781 27.410156 1.84375 23.234375 1.84375 C 16.597656 1.84375 11.679688 0 8.484375 -3.6875 C 5.285156 -7.375 3.6875 -11.921875 3.6875 -17.328125 C 3.6875 -19.546875 4.054688 -21.882812 4.796875 -24.34375 L 96.640625 -244.90625 C 98.609375 -249.832031 101.617188 -253.644531 105.671875 -256.34375 C 109.734375 -259.050781 114.097656 -260.160156 118.765625 -259.671875 C 123.191406 -259.671875 127.3125 -258.378906 131.125 -255.796875 C 134.9375 -253.210938 137.703125 -249.582031 139.421875 -244.90625 L 230.15625 -28.765625 C 231.382812 -25.566406 232 -22.617188 232 -19.921875 C 232 -13.273438 229.847656 -7.984375 225.546875 -4.046875 C 221.242188 -0.117188 216.507812 1.84375 211.34375 1.84375 C 206.914062 1.84375 202.921875 0.492188 199.359375 -2.203125 C 195.796875 -4.910156 193.03125 -8.601562 191.0625 -13.28125 L 111.765625 -198.0625 Z M 54.21875 -57.90625 L 74.5 -100.328125 L 174.09375 -100.328125 L 181.109375 -57.90625 Z M 54.21875 -57.90625 "/></g></g></g><g fill="#000000" fill-opacity="1"><g transform="translate(4285.40935, 1206.966019)"><g><path d="M 115.078125 0 C 108.191406 0 102.535156 -2.148438 98.109375 -6.453125 C 93.679688 -10.753906 91.46875 -16.101562 91.46875 -22.5 L 91.46875 -236.421875 L 139.421875 -236.421875 L 139.421875 -22.5 C 139.421875 -16.101562 137.144531 -10.753906 132.59375 -6.453125 C 128.050781 -2.148438 122.210938 0 115.078125 0 Z M 33.5625 -215.78125 C 27.164062 -215.78125 21.816406 -217.742188 17.515625 -221.671875 C 13.210938 -225.609375 11.0625 -230.773438 11.0625 -237.171875 C 11.0625 -243.554688 13.210938 -248.65625 17.515625 -252.46875 C 21.816406 -256.28125 27.164062 -258.1875 33.5625 -258.1875 L 197.328125 -258.1875 C 203.722656 -258.1875 209.070312 -256.21875 213.375 -252.28125 C 217.675781 -248.351562 219.828125 -243.191406 219.828125 -236.796875 C 219.828125 -230.398438 217.675781 -225.296875 213.375 -221.484375 C 209.070312 -217.679688 203.722656 -215.78125 197.328125 -215.78125 Z M 33.5625 -215.78125 "/></g></g></g><g fill="#000000" fill-opacity="1"><g transform="translate(4516.192379, 1206.966019)"><g><path d="M 73.765625 -22.5 C 73.765625 -16.101562 71.425781 -10.753906 66.75 -6.453125 C 62.082031 -2.148438 56.675781 0 50.53125 0 C 43.644531 0 38.109375 -2.148438 33.921875 -6.453125 C 29.742188 -10.753906 27.65625 -16.101562 27.65625 -22.5 L 27.65625 -235.6875 C 27.65625 -242.082031 29.867188 -247.429688 34.296875 -251.734375 C 38.722656 -256.035156 44.378906 -258.1875 51.265625 -258.1875 C 57.171875 -258.1875 62.394531 -256.035156 66.9375 -251.734375 C 71.488281 -247.429688 73.765625 -242.082031 73.765625 -235.6875 Z M 73.765625 -22.5 "/></g></g></g><g fill="#000000" fill-opacity="1"><g transform="translate(4617.574632, 1206.966019)"><g><path d="M 265.203125 -129.09375 C 265.203125 -110.65625 262.125 -93.441406 255.96875 -77.453125 C 249.820312 -61.472656 241.15625 -47.394531 229.96875 -35.21875 C 218.78125 -23.050781 205.503906 -13.523438 190.140625 -6.640625 C 174.773438 0.242188 157.992188 3.6875 139.796875 3.6875 C 121.597656 3.6875 104.875 0.242188 89.625 -6.640625 C 74.382812 -13.523438 61.171875 -23.050781 49.984375 -35.21875 C 38.796875 -47.394531 30.125 -61.472656 23.96875 -77.453125 C 17.820312 -93.441406 14.75 -110.65625 14.75 -129.09375 C 14.75 -147.539062 17.820312 -164.753906 23.96875 -180.734375 C 30.125 -196.710938 38.796875 -210.785156 49.984375 -222.953125 C 61.171875 -235.128906 74.382812 -244.660156 89.625 -251.546875 C 104.875 -258.429688 121.597656 -261.875 139.796875 -261.875 C 157.992188 -261.875 174.773438 -258.429688 190.140625 -251.546875 C 205.503906 -244.660156 218.78125 -235.128906 229.96875 -222.953125 C 241.15625 -210.785156 249.820312 -196.710938 255.96875 -180.734375 C 262.125 -164.753906 265.203125 -147.539062 265.203125 -129.09375 Z M 217.25 -129.09375 C 217.25 -145.570312 213.925781 -160.507812 207.28125 -173.90625 C 200.644531 -187.3125 191.546875 -197.945312 179.984375 -205.8125 C 168.429688 -213.6875 155.035156 -217.625 139.796875 -217.625 C 124.546875 -217.625 111.140625 -213.6875 99.578125 -205.8125 C 88.023438 -197.945312 78.988281 -187.375 72.46875 -174.09375 C 65.957031 -160.8125 62.703125 -145.8125 62.703125 -129.09375 C 62.703125 -112.613281 65.957031 -97.671875 72.46875 -84.265625 C 78.988281 -70.867188 88.023438 -60.238281 99.578125 -52.375 C 111.140625 -44.507812 124.546875 -40.578125 139.796875 -40.578125 C 155.035156 -40.578125 168.429688 -44.507812 179.984375 -52.375 C 191.546875 -60.238281 200.644531 -70.867188 207.28125 -84.265625 C 213.925781 -97.671875 217.25 -112.613281 217.25 -129.09375 Z M 217.25 -129.09375 "/></g></g></g><g fill="#000000" fill-opacity="1"><g transform="translate(4897.38994, 1206.966019)"><g><path d="M 223.515625 -258.1875 C 229.421875 -258.1875 234.21875 -256.21875 237.90625 -252.28125 C 241.59375 -248.351562 243.4375 -243.4375 243.4375 -237.53125 L 243.4375 -22.5 C 243.4375 -16.101562 241.285156 -10.753906 236.984375 -6.453125 C 232.679688 -2.148438 227.332031 0 220.9375 0 C 217.738281 0 214.476562 -0.550781 211.15625 -1.65625 C 207.84375 -2.757812 205.328125 -4.296875 203.609375 -6.265625 L 58.640625 -190.328125 L 68.234375 -196.21875 L 68.234375 -20.65625 C 68.234375 -14.75 66.328125 -9.828125 62.515625 -5.890625 C 58.703125 -1.960938 53.722656 0 47.578125 0 C 41.679688 0 36.882812 -1.960938 33.1875 -5.890625 C 29.5 -9.828125 27.65625 -14.75 27.65625 -20.65625 L 27.65625 -235.6875 C 27.65625 -242.082031 29.804688 -247.429688 34.109375 -251.734375 C 38.421875 -256.035156 43.769531 -258.1875 50.15625 -258.1875 C 53.601562 -258.1875 57.171875 -257.507812 60.859375 -256.15625 C 64.546875 -254.8125 67.25 -252.785156 68.96875 -250.078125 L 209.5 -70.8125 L 203.234375 -66.390625 L 203.234375 -237.53125 C 203.234375 -243.4375 205.078125 -248.351562 208.765625 -252.28125 C 212.453125 -256.21875 217.367188 -258.1875 223.515625 -258.1875 Z M 223.515625 -258.1875 "/></g></g></g><g fill="#5ce1e6" fill-opacity="0.302"><g transform="translate(2020.509164, 1548.512776)"><g><path d="M 21.5 0 L 21.5 -147.53125 L 106 -147.53125 L 106 -130.25 L 40.046875 -130.25 L 40.046875 -79.234375 L 100.53125 -79.234375 L 100.53125 -62.171875 L 40.046875 -62.171875 L 40.046875 0 Z M 21.5 0 "/></g></g></g><g fill="#5ce1e6" fill-opacity="0.302"><g transform="translate(2138.045079, 1548.512776)"><g><path d="M 88.515625 2.734375 C 73.617188 2.734375 60.410156 -0.53125 48.890625 -7.0625 C 37.367188 -13.59375 28.375 -22.617188 21.90625 -34.140625 C 15.445312 -45.660156 12.21875 -58.867188 12.21875 -73.765625 C 12.21875 -88.796875 15.445312 -102.035156 21.90625 -113.484375 C 28.375 -124.941406 37.367188 -133.9375 48.890625 -140.46875 C 60.410156 -147 73.617188 -150.265625 88.515625 -150.265625 C 103.546875 -150.265625 116.785156 -147 128.234375 -140.46875 C 139.691406 -133.9375 148.6875 -124.941406 155.21875 -113.484375 C 161.75 -102.035156 165.015625 -88.796875 165.015625 -73.765625 C 165.015625 -58.867188 161.75 -45.660156 155.21875 -34.140625 C 148.6875 -22.617188 139.691406 -13.59375 128.234375 -7.0625 C 116.785156 -0.53125 103.546875 2.734375 88.515625 2.734375 Z M 31.1875 -73.765625 C 31.1875 -62.378906 33.609375 -52.332031 38.453125 -43.625 C 43.304688 -34.914062 50.050781 -28.101562 58.6875 -23.1875 C 67.332031 -18.269531 77.273438 -15.8125 88.515625 -15.8125 C 99.890625 -15.8125 109.863281 -18.269531 118.4375 -23.1875 C 127.007812 -28.101562 133.71875 -34.914062 138.5625 -43.625 C 143.414062 -52.332031 145.84375 -62.378906 145.84375 -73.765625 C 145.84375 -85.285156 143.414062 -95.363281 138.5625 -104 C 133.71875 -112.644531 127.007812 -119.425781 118.4375 -124.34375 C 109.863281 -129.257812 99.890625 -131.71875 88.515625 -131.71875 C 77.273438 -131.71875 67.332031 -129.257812 58.6875 -124.34375 C 50.050781 -119.425781 43.304688 -112.644531 38.453125 -104 C 33.609375 -95.363281 31.1875 -85.285156 31.1875 -73.765625 Z M 31.1875 -73.765625 "/></g></g></g><g fill="#5ce1e6" fill-opacity="0.302"><g transform="translate(2314.980968, 1548.512776)"><g><path d="M 21.5 0 L 21.5 -147.53125 L 77.765625 -147.53125 C 88.023438 -147.53125 96.945312 -145.597656 104.53125 -141.734375 C 112.113281 -137.867188 118.015625 -132.421875 122.234375 -125.390625 C 126.453125 -118.367188 128.5625 -109.941406 128.5625 -100.109375 C 128.5625 -88.160156 125.46875 -78.285156 119.28125 -70.484375 C 113.101562 -62.691406 104.601562 -57.460938 93.78125 -54.796875 L 130.875 0 L 108.53125 0 L 72.5 -52.890625 L 40.046875 -52.890625 L 40.046875 0 Z M 40.046875 -70.59375 L 75.65625 -70.59375 C 86.476562 -70.59375 94.835938 -73.15625 100.734375 -78.28125 C 106.640625 -83.414062 109.59375 -90.691406 109.59375 -100.109375 C 109.59375 -109.515625 106.640625 -116.816406 100.734375 -122.015625 C 94.835938 -127.222656 86.476562 -129.828125 75.65625 -129.828125 L 40.046875 -129.828125 Z M 40.046875 -70.59375 "/></g></g></g><g fill="#5ce1e6" fill-opacity="0.302"><g transform="translate(2458.425391, 1548.512776)"><g/></g></g><g fill="#5ce1e6" fill-opacity="0.302"><g transform="translate(2510.663635, 1548.512776)"><g><path d="M 57.109375 0 L 57.109375 -129.828125 L 7.171875 -129.828125 L 7.171875 -147.53125 L 125.390625 -147.53125 L 125.390625 -129.828125 L 75.65625 -129.828125 L 75.65625 0 Z M 57.109375 0 "/></g></g></g><g fill="#5ce1e6" fill-opacity="0.302"><g transform="translate(2643.36564, 1548.512776)"><g><path d="M 21.5 0 L 21.5 -147.53125 L 111.0625 -147.53125 L 111.0625 -130.25 L 40.046875 -130.25 L 40.046875 -83.671875 L 105.796875 -83.671875 L 105.796875 -66.59375 L 40.046875 -66.59375 L 40.046875 -17.28125 L 113.390625 -17.28125 L 113.390625 0 Z M 21.5 0 "/></g></g></g><g fill="#5ce1e6" fill-opacity="0.302"><g transform="translate(2770.380295, 1548.512776)"><g><path d="M 86.828125 2.734375 C 76.003906 2.734375 66.023438 0.835938 56.890625 -2.953125 C 47.765625 -6.742188 39.863281 -12.046875 33.1875 -18.859375 C 26.519531 -25.671875 21.359375 -33.75 17.703125 -43.09375 C 14.046875 -52.4375 12.21875 -62.660156 12.21875 -73.765625 C 12.21875 -84.859375 14.046875 -95.078125 17.703125 -104.421875 C 21.359375 -113.765625 26.519531 -121.84375 33.1875 -128.65625 C 39.863281 -135.476562 47.765625 -140.785156 56.890625 -144.578125 C 66.023438 -148.367188 76.003906 -150.265625 86.828125 -150.265625 C 98.492188 -150.265625 109.207031 -148.117188 118.96875 -143.828125 C 128.726562 -139.546875 137.085938 -133.4375 144.046875 -125.5 C 151.003906 -117.5625 156.097656 -108.179688 159.328125 -97.359375 L 139.515625 -97.359375 C 135.722656 -108.046875 129.15625 -116.441406 119.8125 -122.546875 C 110.46875 -128.660156 99.6875 -131.71875 87.46875 -131.71875 C 76.5 -131.71875 66.800781 -129.257812 58.375 -124.34375 C 49.945312 -119.425781 43.304688 -112.609375 38.453125 -103.890625 C 33.609375 -95.179688 31.1875 -85.140625 31.1875 -73.765625 C 31.1875 -62.378906 33.609375 -52.332031 38.453125 -43.625 C 43.304688 -34.914062 49.945312 -28.101562 58.375 -23.1875 C 66.800781 -18.269531 76.5 -15.8125 87.46875 -15.8125 C 99.96875 -15.8125 111.0625 -19.039062 120.75 -25.5 C 130.445312 -31.957031 137.191406 -40.738281 140.984375 -51.84375 L 160.59375 -51.84375 C 157.644531 -40.882812 152.617188 -31.328125 145.515625 -23.171875 C 138.421875 -15.023438 129.851562 -8.671875 119.8125 -4.109375 C 109.769531 0.453125 98.773438 2.734375 86.828125 2.734375 Z M 86.828125 2.734375 "/></g></g></g><g fill="#5ce1e6" fill-opacity="0.302"><g transform="translate(2942.260938, 1548.512776)"><g><path d="M 118.234375 0 L 118.234375 -66.390625 L 40.046875 -66.390625 L 40.046875 0 L 21.5 0 L 21.5 -147.53125 L 40.046875 -147.53125 L 40.046875 -84.09375 L 118.234375 -84.09375 L 118.234375 -147.53125 L 136.78125 -147.53125 L 136.78125 0 Z M 118.234375 0 "/></g></g></g><g fill="#5ce1e6" fill-opacity="0.302"><g transform="translate(3100.450049, 1548.512776)"><g><path d="M 21.5 0 L 21.5 -147.53125 L 38.984375 -147.53125 L 120.546875 -32.03125 L 120.546875 -147.53125 L 138.671875 -147.53125 L 138.671875 0 L 121.390625 0 L 39.828125 -115.484375 L 39.828125 0 Z M 21.5 0 "/></g></g></g><g fill="#5ce1e6" fill-opacity="0.302"><g transform="translate(3260.534943, 1548.512776)"><g><path d="M 88.515625 2.734375 C 73.617188 2.734375 60.410156 -0.53125 48.890625 -7.0625 C 37.367188 -13.59375 28.375 -22.617188 21.90625 -34.140625 C 15.445312 -45.660156 12.21875 -58.867188 12.21875 -73.765625 C 12.21875 -88.796875 15.445312 -102.035156 21.90625 -113.484375 C 28.375 -124.941406 37.367188 -133.9375 48.890625 -140.46875 C 60.410156 -147 73.617188 -150.265625 88.515625 -150.265625 C 103.546875 -150.265625 116.785156 -147 128.234375 -140.46875 C 139.691406 -133.9375 148.6875 -124.941406 155.21875 -113.484375 C 161.75 -102.035156 165.015625 -88.796875 165.015625 -73.765625 C 165.015625 -58.867188 161.75 -45.660156 155.21875 -34.140625 C 148.6875 -22.617188 139.691406 -13.59375 128.234375 -7.0625 C 116.785156 -0.53125 103.546875 2.734375 88.515625 2.734375 Z M 31.1875 -73.765625 C 31.1875 -62.378906 33.609375 -52.332031 38.453125 -43.625 C 43.304688 -34.914062 50.050781 -28.101562 58.6875 -23.1875 C 67.332031 -18.269531 77.273438 -15.8125 88.515625 -15.8125 C 99.890625 -15.8125 109.863281 -18.269531 118.4375 -23.1875 C 127.007812 -28.101562 133.71875 -34.914062 138.5625 -43.625 C 143.414062 -52.332031 145.84375 -62.378906 145.84375 -73.765625 C 145.84375 -85.285156 143.414062 -95.363281 138.5625 -104 C 133.71875 -112.644531 127.007812 -119.425781 118.4375 -124.34375 C 109.863281 -129.257812 99.890625 -131.71875 88.515625 -131.71875 C 77.273438 -131.71875 67.332031 -129.257812 58.6875 -124.34375 C 50.050781 -119.425781 43.304688 -112.644531 38.453125 -104 C 33.609375 -95.363281 31.1875 -85.285156 31.1875 -73.765625 Z M 31.1875 -73.765625 "/></g></g></g><g fill="#5ce1e6" fill-opacity="0.302"><g transform="translate(3437.470832, 1548.512776)"><g><path d="M 21.5 0 L 21.5 -147.53125 L 40.046875 -147.53125 L 40.046875 -17.703125 L 111.703125 -17.703125 L 111.703125 0 Z M 21.5 0 "/></g></g></g><g fill="#5ce1e6" fill-opacity="0.302"><g transform="translate(3555.638674, 1548.512776)"><g><path d="M 88.515625 2.734375 C 73.617188 2.734375 60.410156 -0.53125 48.890625 -7.0625 C 37.367188 -13.59375 28.375 -22.617188 21.90625 -34.140625 C 15.445312 -45.660156 12.21875 -58.867188 12.21875 -73.765625 C 12.21875 -88.796875 15.445312 -102.035156 21.90625 -113.484375 C 28.375 -124.941406 37.367188 -133.9375 48.890625 -140.46875 C 60.410156 -147 73.617188 -150.265625 88.515625 -150.265625 C 103.546875 -150.265625 116.785156 -147 128.234375 -140.46875 C 139.691406 -133.9375 148.6875 -124.941406 155.21875 -113.484375 C 161.75 -102.035156 165.015625 -88.796875 165.015625 -73.765625 C 165.015625 -58.867188 161.75 -45.660156 155.21875 -34.140625 C 148.6875 -22.617188 139.691406 -13.59375 128.234375 -7.0625 C 116.785156 -0.53125 103.546875 2.734375 88.515625 2.734375 Z M 31.1875 -73.765625 C 31.1875 -62.378906 33.609375 -52.332031 38.453125 -43.625 C 43.304688 -34.914062 50.050781 -28.101562 58.6875 -23.1875 C 67.332031 -18.269531 77.273438 -15.8125 88.515625 -15.8125 C 99.890625 -15.8125 109.863281 -18.269531 118.4375 -23.1875 C 127.007812 -28.101562 133.71875 -34.914062 138.5625 -43.625 C 143.414062 -52.332031 145.84375 -62.378906 145.84375 -73.765625 C 145.84375 -85.285156 143.414062 -95.363281 138.5625 -104 C 133.71875 -112.644531 127.007812 -119.425781 118.4375 -124.34375 C 109.863281 -129.257812 99.890625 -131.71875 88.515625 -131.71875 C 77.273438 -131.71875 67.332031 -129.257812 58.6875 -124.34375 C 50.050781 -119.425781 43.304688 -112.644531 38.453125 -104 C 33.609375 -95.363281 31.1875 -85.285156 31.1875 -73.765625 Z M 31.1875 -73.765625 "/></g></g></g><g fill="#5ce1e6" fill-opacity="0.302"><g transform="translate(3732.574563, 1548.512776)"><g><path d="M 87.25 2.734375 C 76.425781 2.734375 66.445312 0.835938 57.3125 -2.953125 C 48.1875 -6.742188 40.25 -12.046875 33.5 -18.859375 C 26.757812 -25.671875 21.523438 -33.75 17.796875 -43.09375 C 14.078125 -52.4375 12.21875 -62.660156 12.21875 -73.765625 C 12.21875 -84.859375 14.046875 -95.039062 17.703125 -104.3125 C 21.359375 -113.59375 26.554688 -121.675781 33.296875 -128.5625 C 40.046875 -135.445312 47.945312 -140.785156 57 -144.578125 C 66.0625 -148.367188 76.003906 -150.265625 86.828125 -150.265625 C 98.066406 -150.265625 108.460938 -148.226562 118.015625 -144.15625 C 127.566406 -140.082031 135.820312 -134.390625 142.78125 -127.078125 C 149.738281 -119.773438 154.765625 -111.273438 157.859375 -101.578125 L 137.625 -101.578125 C 132.988281 -111.128906 126.3125 -118.539062 117.59375 -123.8125 C 108.882812 -129.082031 98.84375 -131.71875 87.46875 -131.71875 C 76.5 -131.71875 66.765625 -129.257812 58.265625 -124.34375 C 49.765625 -119.425781 43.125 -112.609375 38.34375 -103.890625 C 33.570312 -95.179688 31.1875 -85.140625 31.1875 -73.765625 C 31.1875 -62.378906 33.609375 -52.332031 38.453125 -43.625 C 43.304688 -34.914062 49.984375 -28.101562 58.484375 -23.1875 C 66.984375 -18.269531 76.710938 -15.8125 87.671875 -15.8125 C 97.648438 -15.8125 106.5 -17.773438 114.21875 -21.703125 C 121.945312 -25.640625 128.234375 -31.082031 133.078125 -38.03125 C 137.929688 -44.988281 140.988281 -53.101562 142.25 -62.375 L 82.1875 -62.375 L 82.1875 -80.078125 L 162.28125 -80.078125 C 162.5625 -63.921875 159.570312 -49.625 153.3125 -37.1875 C 147.0625 -24.757812 138.28125 -15 126.96875 -7.90625 C 115.664062 -0.8125 102.425781 2.734375 87.25 2.734375 Z M 87.25 2.734375 "/></g></g></g><g fill="#5ce1e6" fill-opacity="0.302"><g transform="translate(3906.350991, 1548.512776)"><g><path d="M 59.015625 0 L 59.015625 -53.109375 L 3.578125 -147.53125 L 25.078125 -147.53125 L 49.109375 -106.21875 L 68.28125 -72.921875 L 111.703125 -147.53125 L 132.5625 -147.53125 L 77.140625 -53.109375 L 77.140625 0 Z M 59.015625 0 "/></g></g></g><g fill="#5ce1e6" fill-opacity="0.502"><g transform="translate(2012.519239, 1550.211105)"><g><path d="M 21.5 0 L 21.5 -147.53125 L 106 -147.53125 L 106 -130.25 L 40.046875 -130.25 L 40.046875 -79.234375 L 100.53125 -79.234375 L 100.53125 -62.171875 L 40.046875 -62.171875 L 40.046875 0 Z M 21.5 0 "/></g></g></g><g fill="#5ce1e6" fill-opacity="0.502"><g transform="translate(2130.055154, 1550.211105)"><g><path d="M 88.515625 2.734375 C 73.617188 2.734375 60.410156 -0.53125 48.890625 -7.0625 C 37.367188 -13.59375 28.375 -22.617188 21.90625 -34.140625 C 15.445312 -45.660156 12.21875 -58.867188 12.21875 -73.765625 C 12.21875 -88.796875 15.445312 -102.035156 21.90625 -113.484375 C 28.375 -124.941406 37.367188 -133.9375 48.890625 -140.46875 C 60.410156 -147 73.617188 -150.265625 88.515625 -150.265625 C 103.546875 -150.265625 116.785156 -147 128.234375 -140.46875 C 139.691406 -133.9375 148.6875 -124.941406 155.21875 -113.484375 C 161.75 -102.035156 165.015625 -88.796875 165.015625 -73.765625 C 165.015625 -58.867188 161.75 -45.660156 155.21875 -34.140625 C 148.6875 -22.617188 139.691406 -13.59375 128.234375 -7.0625 C 116.785156 -0.53125 103.546875 2.734375 88.515625 2.734375 Z M 31.1875 -73.765625 C 31.1875 -62.378906 33.609375 -52.332031 38.453125 -43.625 C 43.304688 -34.914062 50.050781 -28.101562 58.6875 -23.1875 C 67.332031 -18.269531 77.273438 -15.8125 88.515625 -15.8125 C 99.890625 -15.8125 109.863281 -18.269531 118.4375 -23.1875 C 127.007812 -28.101562 133.71875 -34.914062 138.5625 -43.625 C 143.414062 -52.332031 145.84375 -62.378906 145.84375 -73.765625 C 145.84375 -85.285156 143.414062 -95.363281 138.5625 -104 C 133.71875 -112.644531 127.007812 -119.425781 118.4375 -124.34375 C 109.863281 -129.257812 99.890625 -131.71875 88.515625 -131.71875 C 77.273438 -131.71875 67.332031 -129.257812 58.6875 -124.34375 C 50.050781 -119.425781 43.304688 -112.644531 38.453125 -104 C 33.609375 -95.363281 31.1875 -85.285156 31.1875 -73.765625 Z M 31.1875 -73.765625 "/></g></g></g><g fill="#5ce1e6" fill-opacity="0.502"><g transform="translate(2306.991043, 1550.211105)"><g><path d="M 21.5 0 L 21.5 -147.53125 L 77.765625 -147.53125 C 88.023438 -147.53125 96.945312 -145.597656 104.53125 -141.734375 C 112.113281 -137.867188 118.015625 -132.421875 122.234375 -125.390625 C 126.453125 -118.367188 128.5625 -109.941406 128.5625 -100.109375 C 128.5625 -88.160156 125.46875 -78.285156 119.28125 -70.484375 C 113.101562 -62.691406 104.601562 -57.460938 93.78125 -54.796875 L 130.875 0 L 108.53125 0 L 72.5 -52.890625 L 40.046875 -52.890625 L 40.046875 0 Z M 40.046875 -70.59375 L 75.65625 -70.59375 C 86.476562 -70.59375 94.835938 -73.15625 100.734375 -78.28125 C 106.640625 -83.414062 109.59375 -90.691406 109.59375 -100.109375 C 109.59375 -109.515625 106.640625 -116.816406 100.734375 -122.015625 C 94.835938 -127.222656 86.476562 -129.828125 75.65625 -129.828125 L 40.046875 -129.828125 Z M 40.046875 -70.59375 "/></g></g></g><g fill="#5ce1e6" fill-opacity="0.502"><g transform="translate(2450.435466, 1550.211105)"><g/></g></g><g fill="#5ce1e6" fill-opacity="0.502"><g transform="translate(2502.67371, 1550.211105)"><g><path d="M 57.109375 0 L 57.109375 -129.828125 L 7.171875 -129.828125 L 7.171875 -147.53125 L 125.390625 -147.53125 L 125.390625 -129.828125 L 75.65625 -129.828125 L 75.65625 0 Z M 57.109375 0 "/></g></g></g><g fill="#5ce1e6" fill-opacity="0.502"><g transform="translate(2635.375715, 1550.211105)"><g><path d="M 21.5 0 L 21.5 -147.53125 L 111.0625 -147.53125 L 111.0625 -130.25 L 40.046875 -130.25 L 40.046875 -83.671875 L 105.796875 -83.671875 L 105.796875 -66.59375 L 40.046875 -66.59375 L 40.046875 -17.28125 L 113.390625 -17.28125 L 113.390625 0 Z M 21.5 0 "/></g></g></g><g fill="#5ce1e6" fill-opacity="0.502"><g transform="translate(2762.390369, 1550.211105)"><g><path d="M 86.828125 2.734375 C 76.003906 2.734375 66.023438 0.835938 56.890625 -2.953125 C 47.765625 -6.742188 39.863281 -12.046875 33.1875 -18.859375 C 26.519531 -25.671875 21.359375 -33.75 17.703125 -43.09375 C 14.046875 -52.4375 12.21875 -62.660156 12.21875 -73.765625 C 12.21875 -84.859375 14.046875 -95.078125 17.703125 -104.421875 C 21.359375 -113.765625 26.519531 -121.84375 33.1875 -128.65625 C 39.863281 -135.476562 47.765625 -140.785156 56.890625 -144.578125 C 66.023438 -148.367188 76.003906 -150.265625 86.828125 -150.265625 C 98.492188 -150.265625 109.207031 -148.117188 118.96875 -143.828125 C 128.726562 -139.546875 137.085938 -133.4375 144.046875 -125.5 C 151.003906 -117.5625 156.097656 -108.179688 159.328125 -97.359375 L 139.515625 -97.359375 C 135.722656 -108.046875 129.15625 -116.441406 119.8125 -122.546875 C 110.46875 -128.660156 99.6875 -131.71875 87.46875 -131.71875 C 76.5 -131.71875 66.800781 -129.257812 58.375 -124.34375 C 49.945312 -119.425781 43.304688 -112.609375 38.453125 -103.890625 C 33.609375 -95.179688 31.1875 -85.140625 31.1875 -73.765625 C 31.1875 -62.378906 33.609375 -52.332031 38.453125 -43.625 C 43.304688 -34.914062 49.945312 -28.101562 58.375 -23.1875 C 66.800781 -18.269531 76.5 -15.8125 87.46875 -15.8125 C 99.96875 -15.8125 111.0625 -19.039062 120.75 -25.5 C 130.445312 -31.957031 137.191406 -40.738281 140.984375 -51.84375 L 160.59375 -51.84375 C 157.644531 -40.882812 152.617188 -31.328125 145.515625 -23.171875 C 138.421875 -15.023438 129.851562 -8.671875 119.8125 -4.109375 C 109.769531 0.453125 98.773438 2.734375 86.828125 2.734375 Z M 86.828125 2.734375 "/></g></g></g><g fill="#5ce1e6" fill-opacity="0.502"><g transform="translate(2934.271013, 1550.211105)"><g><path d="M 118.234375 0 L 118.234375 -66.390625 L 40.046875 -66.390625 L 40.046875 0 L 21.5 0 L 21.5 -147.53125 L 40.046875 -147.53125 L 40.046875 -84.09375 L 118.234375 -84.09375 L 118.234375 -147.53125 L 136.78125 -147.53125 L 136.78125 0 Z M 118.234375 0 "/></g></g></g><g fill="#5ce1e6" fill-opacity="0.502"><g transform="translate(3092.460123, 1550.211105)"><g><path d="M 21.5 0 L 21.5 -147.53125 L 38.984375 -147.53125 L 120.546875 -32.03125 L 120.546875 -147.53125 L 138.671875 -147.53125 L 138.671875 0 L 121.390625 0 L 39.828125 -115.484375 L 39.828125 0 Z M 21.5 0 "/></g></g></g><g fill="#5ce1e6" fill-opacity="0.502"><g transform="translate(3252.545018, 1550.211105)"><g><path d="M 88.515625 2.734375 C 73.617188 2.734375 60.410156 -0.53125 48.890625 -7.0625 C 37.367188 -13.59375 28.375 -22.617188 21.90625 -34.140625 C 15.445312 -45.660156 12.21875 -58.867188 12.21875 -73.765625 C 12.21875 -88.796875 15.445312 -102.035156 21.90625 -113.484375 C 28.375 -124.941406 37.367188 -133.9375 48.890625 -140.46875 C 60.410156 -147 73.617188 -150.265625 88.515625 -150.265625 C 103.546875 -150.265625 116.785156 -147 128.234375 -140.46875 C 139.691406 -133.9375 148.6875 -124.941406 155.21875 -113.484375 C 161.75 -102.035156 165.015625 -88.796875 165.015625 -73.765625 C 165.015625 -58.867188 161.75 -45.660156 155.21875 -34.140625 C 148.6875 -22.617188 139.691406 -13.59375 128.234375 -7.0625 C 116.785156 -0.53125 103.546875 2.734375 88.515625 2.734375 Z M 31.1875 -73.765625 C 31.1875 -62.378906 33.609375 -52.332031 38.453125 -43.625 C 43.304688 -34.914062 50.050781 -28.101562 58.6875 -23.1875 C 67.332031 -18.269531 77.273438 -15.8125 88.515625 -15.8125 C 99.890625 -15.8125 109.863281 -18.269531 118.4375 -23.1875 C 127.007812 -28.101562 133.71875 -34.914062 138.5625 -43.625 C 143.414062 -52.332031 145.84375 -62.378906 145.84375 -73.765625 C 145.84375 -85.285156 143.414062 -95.363281 138.5625 -104 C 133.71875 -112.644531 127.007812 -119.425781 118.4375 -124.34375 C 109.863281 -129.257812 99.890625 -131.71875 88.515625 -131.71875 C 77.273438 -131.71875 67.332031 -129.257812 58.6875 -124.34375 C 50.050781 -119.425781 43.304688 -112.644531 38.453125 -104 C 33.609375 -95.363281 31.1875 -85.285156 31.1875 -73.765625 Z M 31.1875 -73.765625 "/></g></g></g><g fill="#5ce1e6" fill-opacity="0.502"><g transform="translate(3429.480907, 1550.211105)"><g><path d="M 21.5 0 L 21.5 -147.53125 L 40.046875 -147.53125 L 40.046875 -17.703125 L 111.703125 -17.703125 L 111.703125 0 Z M 21.5 0 "/></g></g></g><g fill="#5ce1e6" fill-opacity="0.502"><g transform="translate(3547.648749, 1550.211105)"><g><path d="M 88.515625 2.734375 C 73.617188 2.734375 60.410156 -0.53125 48.890625 -7.0625 C 37.367188 -13.59375 28.375 -22.617188 21.90625 -34.140625 C 15.445312 -45.660156 12.21875 -58.867188 12.21875 -73.765625 C 12.21875 -88.796875 15.445312 -102.035156 21.90625 -113.484375 C 28.375 -124.941406 37.367188 -133.9375 48.890625 -140.46875 C 60.410156 -147 73.617188 -150.265625 88.515625 -150.265625 C 103.546875 -150.265625 116.785156 -147 128.234375 -140.46875 C 139.691406 -133.9375 148.6875 -124.941406 155.21875 -113.484375 C 161.75 -102.035156 165.015625 -88.796875 165.015625 -73.765625 C 165.015625 -58.867188 161.75 -45.660156 155.21875 -34.140625 C 148.6875 -22.617188 139.691406 -13.59375 128.234375 -7.0625 C 116.785156 -0.53125 103.546875 2.734375 88.515625 2.734375 Z M 31.1875 -73.765625 C 31.1875 -62.378906 33.609375 -52.332031 38.453125 -43.625 C 43.304688 -34.914062 50.050781 -28.101562 58.6875 -23.1875 C 67.332031 -18.269531 77.273438 -15.8125 88.515625 -15.8125 C 99.890625 -15.8125 109.863281 -18.269531 118.4375 -23.1875 C 127.007812 -28.101562 133.71875 -34.914062 138.5625 -43.625 C 143.414062 -52.332031 145.84375 -62.378906 145.84375 -73.765625 C 145.84375 -85.285156 143.414062 -95.363281 138.5625 -104 C 133.71875 -112.644531 127.007812 -119.425781 118.4375 -124.34375 C 109.863281 -129.257812 99.890625 -131.71875 88.515625 -131.71875 C 77.273438 -131.71875 67.332031 -129.257812 58.6875 -124.34375 C 50.050781 -119.425781 43.304688 -112.644531 38.453125 -104 C 33.609375 -95.363281 31.1875 -85.285156 31.1875 -73.765625 Z M 31.1875 -73.765625 "/></g></g></g><g fill="#5ce1e6" fill-opacity="0.502"><g transform="translate(3724.584638, 1550.211105)"><g><path d="M 87.25 2.734375 C 76.425781 2.734375 66.445312 0.835938 57.3125 -2.953125 C 48.1875 -6.742188 40.25 -12.046875 33.5 -18.859375 C 26.757812 -25.671875 21.523438 -33.75 17.796875 -43.09375 C 14.078125 -52.4375 12.21875 -62.660156 12.21875 -73.765625 C 12.21875 -84.859375 14.046875 -95.039062 17.703125 -104.3125 C 21.359375 -113.59375 26.554688 -121.675781 33.296875 -128.5625 C 40.046875 -135.445312 47.945312 -140.785156 57 -144.578125 C 66.0625 -148.367188 76.003906 -150.265625 86.828125 -150.265625 C 98.066406 -150.265625 108.460938 -148.226562 118.015625 -144.15625 C 127.566406 -140.082031 135.820312 -134.390625 142.78125 -127.078125 C 149.738281 -119.773438 154.765625 -111.273438 157.859375 -101.578125 L 137.625 -101.578125 C 132.988281 -111.128906 126.3125 -118.539062 117.59375 -123.8125 C 108.882812 -129.082031 98.84375 -131.71875 87.46875 -131.71875 C 76.5 -131.71875 66.765625 -129.257812 58.265625 -124.34375 C 49.765625 -119.425781 43.125 -112.609375 38.34375 -103.890625 C 33.570312 -95.179688 31.1875 -85.140625 31.1875 -73.765625 C 31.1875 -62.378906 33.609375 -52.332031 38.453125 -43.625 C 43.304688 -34.914062 49.984375 -28.101562 58.484375 -23.1875 C 66.984375 -18.269531 76.710938 -15.8125 87.671875 -15.8125 C 97.648438 -15.8125 106.5 -17.773438 114.21875 -21.703125 C 121.945312 -25.640625 128.234375 -31.082031 133.078125 -38.03125 C 137.929688 -44.988281 140.988281 -53.101562 142.25 -62.375 L 82.1875 -62.375 L 82.1875 -80.078125 L 162.28125 -80.078125 C 162.5625 -63.921875 159.570312 -49.625 153.3125 -37.1875 C 147.0625 -24.757812 138.28125 -15 126.96875 -7.90625 C 115.664062 -0.8125 102.425781 2.734375 87.25 2.734375 Z M 87.25 2.734375 "/></g></g></g><g fill="#5ce1e6" fill-opacity="0.502"><g transform="translate(3898.361066, 1550.211105)"><g><path d="M 59.015625 0 L 59.015625 -53.109375 L 3.578125 -147.53125 L 25.078125 -147.53125 L 49.109375 -106.21875 L 68.28125 -72.921875 L 111.703125 -147.53125 L 132.5625 -147.53125 L 77.140625 -53.109375 L 77.140625 0 Z M 59.015625 0 "/></g></g></g><g fill="#000000" fill-opacity="1"><g transform="translate(2004.529314, 1551.909434)"><g><path d="M 21.5 0 L 21.5 -147.53125 L 106 -147.53125 L 106 -130.25 L 40.046875 -130.25 L 40.046875 -79.234375 L 100.53125 -79.234375 L 100.53125 -62.171875 L 40.046875 -62.171875 L 40.046875 0 Z M 21.5 0 "/></g></g></g><g fill="#000000" fill-opacity="1"><g transform="translate(2122.065229, 1551.909434)"><g><path d="M 88.515625 2.734375 C 73.617188 2.734375 60.410156 -0.53125 48.890625 -7.0625 C 37.367188 -13.59375 28.375 -22.617188 21.90625 -34.140625 C 15.445312 -45.660156 12.21875 -58.867188 12.21875 -73.765625 C 12.21875 -88.796875 15.445312 -102.035156 21.90625 -113.484375 C 28.375 -124.941406 37.367188 -133.9375 48.890625 -140.46875 C 60.410156 -147 73.617188 -150.265625 88.515625 -150.265625 C 103.546875 -150.265625 116.785156 -147 128.234375 -140.46875 C 139.691406 -133.9375 148.6875 -124.941406 155.21875 -113.484375 C 161.75 -102.035156 165.015625 -88.796875 165.015625 -73.765625 C 165.015625 -58.867188 161.75 -45.660156 155.21875 -34.140625 C 148.6875 -22.617188 139.691406 -13.59375 128.234375 -7.0625 C 116.785156 -0.53125 103.546875 2.734375 88.515625 2.734375 Z M 31.1875 -73.765625 C 31.1875 -62.378906 33.609375 -52.332031 38.453125 -43.625 C 43.304688 -34.914062 50.050781 -28.101562 58.6875 -23.1875 C 67.332031 -18.269531 77.273438 -15.8125 88.515625 -15.8125 C 99.890625 -15.8125 109.863281 -18.269531 118.4375 -23.1875 C 127.007812 -28.101562 133.71875 -34.914062 138.5625 -43.625 C 143.414062 -52.332031 145.84375 -62.378906 145.84375 -73.765625 C 145.84375 -85.285156 143.414062 -95.363281 138.5625 -104 C 133.71875 -112.644531 127.007812 -119.425781 118.4375 -124.34375 C 109.863281 -129.257812 99.890625 -131.71875 88.515625 -131.71875 C 77.273438 -131.71875 67.332031 -129.257812 58.6875 -124.34375 C 50.050781 -119.425781 43.304688 -112.644531 38.453125 -104 C 33.609375 -95.363281 31.1875 -85.285156 31.1875 -73.765625 Z M 31.1875 -73.765625 "/></g></g></g><g fill="#000000" fill-opacity="1"><g transform="translate(2299.001118, 1551.909434)"><g><path d="M 21.5 0 L 21.5 -147.53125 L 77.765625 -147.53125 C 88.023438 -147.53125 96.945312 -145.597656 104.53125 -141.734375 C 112.113281 -137.867188 118.015625 -132.421875 122.234375 -125.390625 C 126.453125 -118.367188 128.5625 -109.941406 128.5625 -100.109375 C 128.5625 -88.160156 125.46875 -78.285156 119.28125 -70.484375 C 113.101562 -62.691406 104.601562 -57.460938 93.78125 -54.796875 L 130.875 0 L 108.53125 0 L 72.5 -52.890625 L 40.046875 -52.890625 L 40.046875 0 Z M 40.046875 -70.59375 L 75.65625 -70.59375 C 86.476562 -70.59375 94.835938 -73.15625 100.734375 -78.28125 C 106.640625 -83.414062 109.59375 -90.691406 109.59375 -100.109375 C 109.59375 -109.515625 106.640625 -116.816406 100.734375 -122.015625 C 94.835938 -127.222656 86.476562 -129.828125 75.65625 -129.828125 L 40.046875 -129.828125 Z M 40.046875 -70.59375 "/></g></g></g><g fill="#000000" fill-opacity="1"><g transform="translate(2442.445541, 1551.909434)"><g/></g></g><g fill="#000000" fill-opacity="1"><g transform="translate(2494.683784, 1551.909434)"><g><path d="M 57.109375 0 L 57.109375 -129.828125 L 7.171875 -129.828125 L 7.171875 -147.53125 L 125.390625 -147.53125 L 125.390625 -129.828125 L 75.65625 -129.828125 L 75.65625 0 Z M 57.109375 0 "/></g></g></g><g fill="#000000" fill-opacity="1"><g transform="translate(2627.38579, 1551.909434)"><g><path d="M 21.5 0 L 21.5 -147.53125 L 111.0625 -147.53125 L 111.0625 -130.25 L 40.046875 -130.25 L 40.046875 -83.671875 L 105.796875 -83.671875 L 105.796875 -66.59375 L 40.046875 -66.59375 L 40.046875 -17.28125 L 113.390625 -17.28125 L 113.390625 0 Z M 21.5 0 "/></g></g></g><g fill="#000000" fill-opacity="1"><g transform="translate(2754.400444, 1551.909434)"><g><path d="M 86.828125 2.734375 C 76.003906 2.734375 66.023438 0.835938 56.890625 -2.953125 C 47.765625 -6.742188 39.863281 -12.046875 33.1875 -18.859375 C 26.519531 -25.671875 21.359375 -33.75 17.703125 -43.09375 C 14.046875 -52.4375 12.21875 -62.660156 12.21875 -73.765625 C 12.21875 -84.859375 14.046875 -95.078125 17.703125 -104.421875 C 21.359375 -113.765625 26.519531 -121.84375 33.1875 -128.65625 C 39.863281 -135.476562 47.765625 -140.785156 56.890625 -144.578125 C 66.023438 -148.367188 76.003906 -150.265625 86.828125 -150.265625 C 98.492188 -150.265625 109.207031 -148.117188 118.96875 -143.828125 C 128.726562 -139.546875 137.085938 -133.4375 144.046875 -125.5 C 151.003906 -117.5625 156.097656 -108.179688 159.328125 -97.359375 L 139.515625 -97.359375 C 135.722656 -108.046875 129.15625 -116.441406 119.8125 -122.546875 C 110.46875 -128.660156 99.6875 -131.71875 87.46875 -131.71875 C 76.5 -131.71875 66.800781 -129.257812 58.375 -124.34375 C 49.945312 -119.425781 43.304688 -112.609375 38.453125 -103.890625 C 33.609375 -95.179688 31.1875 -85.140625 31.1875 -73.765625 C 31.1875 -62.378906 33.609375 -52.332031 38.453125 -43.625 C 43.304688 -34.914062 49.945312 -28.101562 58.375 -23.1875 C 66.800781 -18.269531 76.5 -15.8125 87.46875 -15.8125 C 99.96875 -15.8125 111.0625 -19.039062 120.75 -25.5 C 130.445312 -31.957031 137.191406 -40.738281 140.984375 -51.84375 L 160.59375 -51.84375 C 157.644531 -40.882812 152.617188 -31.328125 145.515625 -23.171875 C 138.421875 -15.023438 129.851562 -8.671875 119.8125 -4.109375 C 109.769531 0.453125 98.773438 2.734375 86.828125 2.734375 Z M 86.828125 2.734375 "/></g></g></g><g fill="#000000" fill-opacity="1"><g transform="translate(2926.281088, 1551.909434)"><g><path d="M 118.234375 0 L 118.234375 -66.390625 L 40.046875 -66.390625 L 40.046875 0 L 21.5 0 L 21.5 -147.53125 L 40.046875 -147.53125 L 40.046875 -84.09375 L 118.234375 -84.09375 L 118.234375 -147.53125 L 136.78125 -147.53125 L 136.78125 0 Z M 118.234375 0 "/></g></g></g><g fill="#000000" fill-opacity="1"><g transform="translate(3084.470198, 1551.909434)"><g><path d="M 21.5 0 L 21.5 -147.53125 L 38.984375 -147.53125 L 120.546875 -32.03125 L 120.546875 -147.53125 L 138.671875 -147.53125 L 138.671875 0 L 121.390625 0 L 39.828125 -115.484375 L 39.828125 0 Z M 21.5 0 "/></g></g></g><g fill="#000000" fill-opacity="1"><g transform="translate(3244.555092, 1551.909434)"><g><path d="M 88.515625 2.734375 C 73.617188 2.734375 60.410156 -0.53125 48.890625 -7.0625 C 37.367188 -13.59375 28.375 -22.617188 21.90625 -34.140625 C 15.445312 -45.660156 12.21875 -58.867188 12.21875 -73.765625 C 12.21875 -88.796875 15.445312 -102.035156 21.90625 -113.484375 C 28.375 -124.941406 37.367188 -133.9375 48.890625 -140.46875 C 60.410156 -147 73.617188 -150.265625 88.515625 -150.265625 C 103.546875 -150.265625 116.785156 -147 128.234375 -140.46875 C 139.691406 -133.9375 148.6875 -124.941406 155.21875 -113.484375 C 161.75 -102.035156 165.015625 -88.796875 165.015625 -73.765625 C 165.015625 -58.867188 161.75 -45.660156 155.21875 -34.140625 C 148.6875 -22.617188 139.691406 -13.59375 128.234375 -7.0625 C 116.785156 -0.53125 103.546875 2.734375 88.515625 2.734375 Z M 31.1875 -73.765625 C 31.1875 -62.378906 33.609375 -52.332031 38.453125 -43.625 C 43.304688 -34.914062 50.050781 -28.101562 58.6875 -23.1875 C 67.332031 -18.269531 77.273438 -15.8125 88.515625 -15.8125 C 99.890625 -15.8125 109.863281 -18.269531 118.4375 -23.1875 C 127.007812 -28.101562 133.71875 -34.914062 138.5625 -43.625 C 143.414062 -52.332031 145.84375 -62.378906 145.84375 -73.765625 C 145.84375 -85.285156 143.414062 -95.363281 138.5625 -104 C 133.71875 -112.644531 127.007812 -119.425781 118.4375 -124.34375 C 109.863281 -129.257812 99.890625 -131.71875 88.515625 -131.71875 C 77.273438 -131.71875 67.332031 -129.257812 58.6875 -124.34375 C 50.050781 -119.425781 43.304688 -112.644531 38.453125 -104 C 33.609375 -95.363281 31.1875 -85.285156 31.1875 -73.765625 Z M 31.1875 -73.765625 "/></g></g></g><g fill="#000000" fill-opacity="1"><g transform="translate(3421.490981, 1551.909434)"><g><path d="M 21.5 0 L 21.5 -147.53125 L 40.046875 -147.53125 L 40.046875 -17.703125 L 111.703125 -17.703125 L 111.703125 0 Z M 21.5 0 "/></g></g></g><g fill="#000000" fill-opacity="1"><g transform="translate(3539.658823, 1551.909434)"><g><path d="M 88.515625 2.734375 C 73.617188 2.734375 60.410156 -0.53125 48.890625 -7.0625 C 37.367188 -13.59375 28.375 -22.617188 21.90625 -34.140625 C 15.445312 -45.660156 12.21875 -58.867188 12.21875 -73.765625 C 12.21875 -88.796875 15.445312 -102.035156 21.90625 -113.484375 C 28.375 -124.941406 37.367188 -133.9375 48.890625 -140.46875 C 60.410156 -147 73.617188 -150.265625 88.515625 -150.265625 C 103.546875 -150.265625 116.785156 -147 128.234375 -140.46875 C 139.691406 -133.9375 148.6875 -124.941406 155.21875 -113.484375 C 161.75 -102.035156 165.015625 -88.796875 165.015625 -73.765625 C 165.015625 -58.867188 161.75 -45.660156 155.21875 -34.140625 C 148.6875 -22.617188 139.691406 -13.59375 128.234375 -7.0625 C 116.785156 -0.53125 103.546875 2.734375 88.515625 2.734375 Z M 31.1875 -73.765625 C 31.1875 -62.378906 33.609375 -52.332031 38.453125 -43.625 C 43.304688 -34.914062 50.050781 -28.101562 58.6875 -23.1875 C 67.332031 -18.269531 77.273438 -15.8125 88.515625 -15.8125 C 99.890625 -15.8125 109.863281 -18.269531 118.4375 -23.1875 C 127.007812 -28.101562 133.71875 -34.914062 138.5625 -43.625 C 143.414062 -52.332031 145.84375 -62.378906 145.84375 -73.765625 C 145.84375 -85.285156 143.414062 -95.363281 138.5625 -104 C 133.71875 -112.644531 127.007812 -119.425781 118.4375 -124.34375 C 109.863281 -129.257812 99.890625 -131.71875 88.515625 -131.71875 C 77.273438 -131.71875 67.332031 -129.257812 58.6875 -124.34375 C 50.050781 -119.425781 43.304688 -112.644531 38.453125 -104 C 33.609375 -95.363281 31.1875 -85.285156 31.1875 -73.765625 Z M 31.1875 -73.765625 "/></g></g></g><g fill="#000000" fill-opacity="1"><g transform="translate(3716.594712, 1551.909434)"><g><path d="M 87.25 2.734375 C 76.425781 2.734375 66.445312 0.835938 57.3125 -2.953125 C 48.1875 -6.742188 40.25 -12.046875 33.5 -18.859375 C 26.757812 -25.671875 21.523438 -33.75 17.796875 -43.09375 C 14.078125 -52.4375 12.21875 -62.660156 12.21875 -73.765625 C 12.21875 -84.859375 14.046875 -95.039062 17.703125 -104.3125 C 21.359375 -113.59375 26.554688 -121.675781 33.296875 -128.5625 C 40.046875 -135.445312 47.945312 -140.785156 57 -144.578125 C 66.0625 -148.367188 76.003906 -150.265625 86.828125 -150.265625 C 98.066406 -150.265625 108.460938 -148.226562 118.015625 -144.15625 C 127.566406 -140.082031 135.820312 -134.390625 142.78125 -127.078125 C 149.738281 -119.773438 154.765625 -111.273438 157.859375 -101.578125 L 137.625 -101.578125 C 132.988281 -111.128906 126.3125 -118.539062 117.59375 -123.8125 C 108.882812 -129.082031 98.84375 -131.71875 87.46875 -131.71875 C 76.5 -131.71875 66.765625 -129.257812 58.265625 -124.34375 C 49.765625 -119.425781 43.125 -112.609375 38.34375 -103.890625 C 33.570312 -95.179688 31.1875 -85.140625 31.1875 -73.765625 C 31.1875 -62.378906 33.609375 -52.332031 38.453125 -43.625 C 43.304688 -34.914062 49.984375 -28.101562 58.484375 -23.1875 C 66.984375 -18.269531 76.710938 -15.8125 87.671875 -15.8125 C 97.648438 -15.8125 106.5 -17.773438 114.21875 -21.703125 C 121.945312 -25.640625 128.234375 -31.082031 133.078125 -38.03125 C 137.929688 -44.988281 140.988281 -53.101562 142.25 -62.375 L 82.1875 -62.375 L 82.1875 -80.078125 L 162.28125 -80.078125 C 162.5625 -63.921875 159.570312 -49.625 153.3125 -37.1875 C 147.0625 -24.757812 138.28125 -15 126.96875 -7.90625 C 115.664062 -0.8125 102.425781 2.734375 87.25 2.734375 Z M 87.25 2.734375 "/></g></g></g><g fill="#000000" fill-opacity="1"><g transform="translate(3890.37114, 1551.909434)"><g><path d="M 59.015625 0 L 59.015625 -53.109375 L 3.578125 -147.53125 L 25.078125 -147.53125 L 49.109375 -106.21875 L 68.28125 -72.921875 L 111.703125 -147.53125 L 132.5625 -147.53125 L 77.140625 -53.109375 L 77.140625 0 Z M 59.015625 0 "/></g></g></g></svg>